<?xml version="1.0" encoding="utf-8" standalone="no"?>
<!DOCTYPE svg PUBLIC "-//W3C//DTD SVG 1.1//EN"
  "http://www.w3.org/Graphics/SVG/1.1/DTD/svg11.dtd">
<svg xmlns:xlink="http://www.w3.org/1999/xlink" width="395.770803pt" height="257.766312pt" viewBox="0 0 395.770803 257.766312" xmlns="http://www.w3.org/2000/svg" version="1.1">
 <metadata>
  <rdf:RDF xmlns:dc="http://purl.org/dc/elements/1.1/" xmlns:cc="http://creativecommons.org/ns#" xmlns:rdf="http://www.w3.org/1999/02/22-rdf-syntax-ns#">
   <cc:Work>
    <dc:type rdf:resource="http://purl.org/dc/dcmitype/StillImage"/>
    <dc:date>2022-08-23T13:33:12.179895</dc:date>
    <dc:format>image/svg+xml</dc:format>
    <dc:creator>
     <cc:Agent>
      <dc:title>Matplotlib v3.5.1, https://matplotlib.org/</dc:title>
     </cc:Agent>
    </dc:creator>
   </cc:Work>
  </rdf:RDF>
 </metadata>
 <defs>
  <style type="text/css">*{stroke-linejoin: round; stroke-linecap: butt}</style>
 </defs>
 <g id="figure_1">
  <g id="patch_1">
   <path d="M 0 257.766312 
L 395.770803 257.766312 
L 395.770803 0 
L 0 0 
z
" style="fill: #ffffff"/>
  </g>
  <g id="axes_1">
   <g id="patch_2">
    <path d="M 46.015313 228.218906 
L 380.815313 228.218906 
L 380.815313 10.778906 
L 46.015313 10.778906 
z
" style="fill: #ffffff"/>
   </g>
   <g id="LineCollection_1">
    <path d="M 61.233494 142.274653 
L 61.233494 106.504656 
" clip-path="url(#p01d871153a)" style="fill: none; stroke: #000000; stroke-width: 1.5"/>
    <path d="M 91.669858 93.780976 
L 91.669858 86.953658 
" clip-path="url(#p01d871153a)" style="fill: none; stroke: #000000; stroke-width: 1.5"/>
    <path d="M 122.106222 45.691583 
L 122.106222 31.674704 
" clip-path="url(#p01d871153a)" style="fill: none; stroke: #000000; stroke-width: 1.5"/>
    <path d="M 152.542585 125.908023 
L 152.542585 80.633742 
" clip-path="url(#p01d871153a)" style="fill: none; stroke: #000000; stroke-width: 1.5"/>
    <path d="M 182.978949 20.647238 
L 182.978949 15.189658 
" clip-path="url(#p01d871153a)" style="fill: none; stroke: #000000; stroke-width: 1.5"/>
    <path d="M 213.415313 104.124772 
L 213.415313 98.355672 
" clip-path="url(#p01d871153a)" style="fill: none; stroke: #000000; stroke-width: 1.5"/>
    <path d="M 243.851676 80.497273 
L 243.851676 73.014589 
" clip-path="url(#p01d871153a)" style="fill: none; stroke: #000000; stroke-width: 1.5"/>
    <path d="M 274.28804 125.162352 
L 274.28804 110.426781 
" clip-path="url(#p01d871153a)" style="fill: none; stroke: #000000; stroke-width: 1.5"/>
    <path clip-path="url(#p01d871153a)" style="fill: none; stroke: #000000; stroke-width: 1.5"/>
    <path clip-path="url(#p01d871153a)" style="fill: none; stroke: #000000; stroke-width: 1.5"/>
    <path d="M 365.597131 123.208003 
L 365.597131 119.283382 
" clip-path="url(#p01d871153a)" style="fill: none; stroke: #000000; stroke-width: 1.5"/>
   </g>
   <g id="line2d_1"/>
   <g id="matplotlib.axis_1">
    <g id="xtick_1">
     <g id="line2d_2"/>
     <g id="text_1">
      <text style="fill: #262626; font: 9.5px 'sans-serif'" transform="translate(28.225447 238.547031)">1,2-propanediol</text>
      <text style="fill: #262626; font: 9.5px 'sans-serif'" transform="translate(61.233494 248.595062)"/>
     </g>
    </g>
    <g id="xtick_2">
     <g id="line2d_3"/>
     <g id="text_2">
      <text style="fill: #262626; font: 9.5px 'sans-serif'" transform="translate(91.669858 238.518828)"/>
      <text style="fill: #262626; font: 9.5px 'sans-serif'" transform="translate(61.565249 248.566859)">2,3-butanediol</text>
     </g>
    </g>
    <g id="xtick_3">
     <g id="line2d_4"/>
     <g id="text_3">
      <text style="fill: #262626; font: 9.5px 'sans-serif'" transform="translate(102.56962 238.518828)">Glutarate</text>
      <text style="fill: #262626; font: 9.5px 'sans-serif'" transform="translate(122.106222 248.566859)"/>
     </g>
    </g>
    <g id="xtick_4">
     <g id="line2d_5"/>
     <g id="text_4">
      <text style="fill: #262626; font: 9.5px 'sans-serif'" transform="translate(152.542585 238.518828)"/>
      <text style="fill: #262626; font: 9.5px 'sans-serif'" transform="translate(136.433406 248.566859)">Adipate</text>
     </g>
    </g>
    <g id="xtick_5">
     <g id="line2d_6"/>
     <g id="text_5">
      <text style="fill: #262626; font: 9.5px 'sans-serif'" transform="translate(160.538168 238.518828)">Putrescine</text>
      <text style="fill: #262626; font: 9.5px 'sans-serif'" transform="translate(182.978949 248.566859)"/>
     </g>
    </g>
    <g id="xtick_6">
     <g id="line2d_7"/>
     <g id="text_6">
      <text style="fill: #262626; font: 9.5px 'sans-serif'" transform="translate(213.415313 238.518828)"/>
      <text style="fill: #262626; font: 9.5px 'sans-serif'" transform="translate(199.429531 248.566859)">HMDA</text>
     </g>
    </g>
    <g id="xtick_7">
     <g id="line2d_8"/>
     <g id="text_7">
      <text style="fill: #262626; font: 9.5px 'sans-serif'" transform="translate(220.35402 238.518828)">Isobutyrate</text>
      <text style="fill: #262626; font: 9.5px 'sans-serif'" transform="translate(243.851676 248.678187)"/>
     </g>
    </g>
    <g id="xtick_8">
     <g id="line2d_9"/>
     <g id="text_8">
      <text style="fill: #262626; font: 9.5px 'sans-serif'" transform="translate(274.28804 238.518828)"/>
      <text style="fill: #262626; font: 9.5px 'sans-serif'" transform="translate(250.79261 248.566859)">Coumarate</text>
     </g>
    </g>
    <g id="xtick_9">
     <g id="line2d_10"/>
     <g id="text_9">
      <text style="fill: #262626; font: 9.5px 'sans-serif'" transform="translate(288.615224 238.518828)">Butanol</text>
      <text style="fill: #262626; font: 9.5px 'sans-serif'" transform="translate(304.724403 248.566859)"/>
     </g>
    </g>
    <g id="xtick_10">
     <g id="line2d_11"/>
     <g id="text_10">
      <text style="fill: #262626; font: 9.5px 'sans-serif'" transform="translate(335.160767 238.518828)"/>
      <text style="fill: #262626; font: 9.5px 'sans-serif'" transform="translate(313.244712 248.566859)">Octanoate</text>
     </g>
    </g>
    <g id="xtick_11">
     <g id="line2d_12"/>
     <g id="text_11">
      <text style="fill: #262626; font: 9.5px 'sans-serif'" transform="translate(342.623459 238.518828)">Hexanoate</text>
      <text style="fill: #262626; font: 9.5px 'sans-serif'" transform="translate(365.597131 248.566859)"/>
     </g>
    </g>
   </g>
   <g id="matplotlib.axis_2">
    <g id="ytick_1">
     <g id="line2d_13">
      <path d="M 46.015313 228.218906 
L 380.815313 228.218906 
" clip-path="url(#p01d871153a)" style="fill: none; stroke: #cccccc; stroke-width: 0.8; stroke-linecap: round"/>
     </g>
     <g id="line2d_14"/>
     <g id="text_12">
      <text style="fill: #262626; font: 10px 'sans-serif'; text-anchor: end" x="42.515313" y="231.797812" transform="rotate(-0, 42.515313, 231.797812)">0</text>
     </g>
    </g>
    <g id="ytick_2">
     <g id="line2d_15">
      <path d="M 46.015313 184.730906 
L 380.815313 184.730906 
" clip-path="url(#p01d871153a)" style="fill: none; stroke: #cccccc; stroke-width: 0.8; stroke-linecap: round"/>
     </g>
     <g id="line2d_16"/>
     <g id="text_13">
      <text style="fill: #262626; font: 10px 'sans-serif'; text-anchor: end" x="42.515313" y="188.309812" transform="rotate(-0, 42.515313, 188.309812)">20</text>
     </g>
    </g>
    <g id="ytick_3">
     <g id="line2d_17">
      <path d="M 46.015313 141.242906 
L 380.815313 141.242906 
" clip-path="url(#p01d871153a)" style="fill: none; stroke: #cccccc; stroke-width: 0.8; stroke-linecap: round"/>
     </g>
     <g id="line2d_18"/>
     <g id="text_14">
      <text style="fill: #262626; font: 10px 'sans-serif'; text-anchor: end" x="42.515313" y="144.821812" transform="rotate(-0, 42.515313, 144.821812)">40</text>
     </g>
    </g>
    <g id="ytick_4">
     <g id="line2d_19">
      <path d="M 46.015313 97.754906 
L 380.815313 97.754906 
" clip-path="url(#p01d871153a)" style="fill: none; stroke: #cccccc; stroke-width: 0.8; stroke-linecap: round"/>
     </g>
     <g id="line2d_20"/>
     <g id="text_15">
      <text style="fill: #262626; font: 10px 'sans-serif'; text-anchor: end" x="42.515313" y="101.333812" transform="rotate(-0, 42.515313, 101.333812)">60</text>
     </g>
    </g>
    <g id="ytick_5">
     <g id="line2d_21">
      <path d="M 46.015313 54.266906 
L 380.815313 54.266906 
" clip-path="url(#p01d871153a)" style="fill: none; stroke: #cccccc; stroke-width: 0.8; stroke-linecap: round"/>
     </g>
     <g id="line2d_22"/>
     <g id="text_16">
      <text style="fill: #262626; font: 10px 'sans-serif'; text-anchor: end" x="42.515313" y="57.845812" transform="rotate(-0, 42.515313, 57.845812)">80</text>
     </g>
    </g>
    <g id="ytick_6">
     <g id="line2d_23">
      <path d="M 46.015313 10.778906 
L 380.815313 10.778906 
" clip-path="url(#p01d871153a)" style="fill: none; stroke: #cccccc; stroke-width: 0.8; stroke-linecap: round"/>
     </g>
     <g id="line2d_24"/>
     <g id="text_17">
      <text style="fill: #262626; font: 10px 'sans-serif'; text-anchor: end" x="42.515313" y="14.357812" transform="rotate(-0, 42.515313, 14.357812)">100</text>
     </g>
    </g>
    <g id="text_18">
     <text style="fill: #262626; font: 16px 'sans-serif'; text-anchor: middle" x="18.6525" y="119.498906" transform="rotate(-90, 18.6525, 119.498906)">% reconstructed tolerance</text>
    </g>
   </g>
   <g id="patch_3">
    <path d="M 53.624403 228.218906 
L 68.842585 228.218906 
L 68.842585 124.389654 
L 53.624403 124.389654 
z
" clip-path="url(#p01d871153a)" style="fill: #9cd4ee"/>
   </g>
   <g id="patch_4">
    <path d="M 84.060767 228.218906 
L 99.278949 228.218906 
L 99.278949 90.367317 
L 84.060767 90.367317 
z
" clip-path="url(#p01d871153a)" style="fill: #9cd4ee"/>
   </g>
   <g id="patch_5">
    <path d="M 114.497131 228.218906 
L 129.715313 228.218906 
L 129.715313 38.683144 
L 114.497131 38.683144 
z
" clip-path="url(#p01d871153a)" style="fill: #9cd4ee"/>
   </g>
   <g id="patch_6">
    <path d="M 144.933494 228.218906 
L 160.151676 228.218906 
L 160.151676 103.270883 
L 144.933494 103.270883 
z
" clip-path="url(#p01d871153a)" style="fill: #9cd4ee"/>
   </g>
   <g id="patch_7">
    <path d="M 175.369858 228.218906 
L 190.58804 228.218906 
L 190.58804 17.918448 
L 175.369858 17.918448 
z
" clip-path="url(#p01d871153a)" style="fill: #9cd4ee"/>
   </g>
   <g id="patch_8">
    <path d="M 205.806222 228.218906 
L 221.024403 228.218906 
L 221.024403 101.240222 
L 205.806222 101.240222 
z
" clip-path="url(#p01d871153a)" style="fill: #9cd4ee"/>
   </g>
   <g id="patch_9">
    <path d="M 236.242585 228.218906 
L 251.460767 228.218906 
L 251.460767 76.755931 
L 236.242585 76.755931 
z
" clip-path="url(#p01d871153a)" style="fill: #9cd4ee"/>
   </g>
   <g id="patch_10">
    <path d="M 266.678949 228.218906 
L 281.897131 228.218906 
L 281.897131 117.794566 
L 266.678949 117.794566 
z
" clip-path="url(#p01d871153a)" style="fill: #9cd4ee"/>
   </g>
   <g id="patch_11">
    <path d="M 297.115313 228.218906 
L 312.333494 228.218906 
L 312.333494 228.218906 
L 297.115313 228.218906 
z
" clip-path="url(#p01d871153a)" style="fill: #9cd4ee"/>
   </g>
   <g id="patch_12">
    <path d="M 327.551676 228.218906 
L 342.769858 228.218906 
L 342.769858 228.218906 
L 327.551676 228.218906 
z
" clip-path="url(#p01d871153a)" style="fill: #9cd4ee"/>
   </g>
   <g id="patch_13">
    <path d="M 357.98804 228.218906 
L 373.206222 228.218906 
L 373.206222 121.245693 
L 357.98804 121.245693 
z
" clip-path="url(#p01d871153a)" style="fill: #9cd4ee"/>
   </g>
   <g id="patch_14">
    <path d="M 46.015313 228.218906 
L 46.015313 10.778906 
" style="fill: none; stroke: #262626; stroke-width: 1.25; stroke-linejoin: miter; stroke-linecap: square"/>
   </g>
   <g id="patch_15">
    <path d="M 380.815313 228.218906 
L 380.815313 10.778906 
" style="fill: none; stroke: #262626; stroke-width: 1.25; stroke-linejoin: miter; stroke-linecap: square"/>
   </g>
   <g id="patch_16">
    <path d="M 46.015313 228.218906 
L 380.815313 228.218906 
" style="fill: none; stroke: #262626; stroke-width: 1.25; stroke-linejoin: miter; stroke-linecap: square"/>
   </g>
   <g id="patch_17">
    <path d="M 46.015313 10.778906 
L 380.815313 10.778906 
" style="fill: none; stroke: #262626; stroke-width: 1.25; stroke-linejoin: miter; stroke-linecap: square"/>
   </g>
   <g id="text_19">
    <!-- $\Delta$metJ -->
    <g style="fill: #262626" transform="translate(62.39429 225.460106)rotate(-90)">
     <text>
      <tspan style="font: 8px 'DejaVu Sans'" x="0" y="-0.171875">Δ</tspan>
      <tspan style="font: 8px 'Arial'" x="5.472656 12.136719 16.585938 18.808594" y="-0.171875">metJ</tspan>
     </text>
    </g>
   </g>
   <g id="text_20">
    <!-- $\Delta$metJ $\Delta$acrB -->
    <g style="fill: #262626" transform="translate(92.830653 225.460106)rotate(-90)">
     <text>
      <tspan style="font: 8px 'DejaVu Sans'" x="0 25.03125" y="-0.171875">ΔΔ</tspan>
      <tspan style="font: 8px 'Arial'" x="5.472656 12.136719 16.585938 18.808594 22.808594 30.503906 34.953125 38.953125 41.617188" y="-0.171875">metJ acrB</tspan>
     </text>
    </g>
   </g>
   <g id="text_21">
    <!-- $\Delta$kgtP $\Delta$proV $\Delta$ybjL -->
    <g style="fill: #262626" transform="translate(123.380767 225.630106)rotate(-90)">
     <text>
      <tspan style="font: 8px 'DejaVu Sans'" x="0 23.703125 48.296875" y="-0.171875">ΔΔΔ</tspan>
      <tspan style="font: 8px 'Arial'" x="5.472656 9.472656 13.921875 16.144531 21.480469 29.175781 33.625 36.289062 40.738281 46.074219 53.769531 57.769531 62.21875 63.996094" y="-0.171875">kgtP proV ybjL</tspan>
     </text>
    </g>
   </g>
   <g id="text_22">
    <!-- $\Delta$kgtP $\Delta$proV $\Delta$ybjL -->
    <g style="fill: #262626" transform="translate(153.817131 225.630106)rotate(-90)">
     <text>
      <tspan style="font: 8px 'DejaVu Sans'" x="0 23.703125 48.296875" y="-0.171875">ΔΔΔ</tspan>
      <tspan style="font: 8px 'Arial'" x="5.472656 9.472656 13.921875 16.144531 21.480469 29.175781 33.625 36.289062 40.738281 46.074219 53.769531 57.769531 62.21875 63.996094" y="-0.171875">kgtP proV ybjL</tspan>
     </text>
    </g>
   </g>
   <g id="text_23">
    <text style="fill: #262626; font: 8px 'sans-serif'" transform="translate(184.667244 225.460106)rotate(-90)">$rpsG1* mreB*</text>
   </g>
   <g id="text_24">
    <!-- $\Delta$proV $\Delta$ybeX rpsG1* mreB* -->
    <g style="fill: #262626" transform="translate(214.689858 225.630106)rotate(-90)">
     <text>
      <tspan style="font: 8px 'DejaVu Sans'" x="0 24.59375" y="-0.171875">ΔΔ</tspan>
      <tspan style="font: 8px 'Arial'" x="5.472656 9.921875 12.585938 17.035156 22.371094 30.066406 34.066406 38.515625 42.964844 48.300781 50.523438 53.1875 57.636719 61.636719 67.859375 72.308594 75.421875 77.644531 84.308594 86.972656 91.421875 96.757812" y="-0.171875">proV ybeX rpsG1* mreB*</tspan>
     </text>
    </g>
   </g>
   <g id="text_25">
    <!-- $\Delta$pykF $\Delta$rpoS -->
    <g style="fill: #262626" transform="translate(245.126222 225.630106)rotate(-90)">
     <text>
      <tspan style="font: 8px 'DejaVu Sans'" x="0 25.03125" y="-0.171875">ΔΔ</tspan>
      <tspan style="font: 8px 'Arial'" x="5.472656 9.921875 13.921875 17.921875 22.808594 30.503906 33.167969 37.617188 42.066406" y="-0.171875">pykF rpoS</tspan>
     </text>
    </g>
   </g>
   <g id="text_26">
    <!-- $\Delta$nadR $\Delta$mprA $\Delta$yhjK -->
    <g style="fill: #262626" transform="translate(275.562585 225.630106)rotate(-90)">
     <text>
      <tspan style="font: 8px 'DejaVu Sans'" x="0 26.820312 53.628906" y="-0.171875">ΔΔΔ</tspan>
      <tspan style="font: 8px 'Arial'" x="5.472656 9.921875 14.371094 18.820312 24.597656 32.292969 38.957031 43.40625 46.070312 51.40625 59.101562 63.101562 67.550781 69.328125" y="-0.171875">nadR mprA yhjK</tspan>
     </text>
    </g>
   </g>
   <g id="text_27">
    <text style="fill: #262626; font: 8px 'sans-serif'" transform="translate(305.885199 225.460106)rotate(-90)">n.s.</text>
   </g>
   <g id="text_28">
    <text style="fill: #262626; font: 8px 'sans-serif'" transform="translate(336.321563 225.460106)rotate(-90)">n.s.</text>
   </g>
   <g id="text_29">
    <!-- $\Delta$ompR bioB* -->
    <g style="fill: #262626" transform="translate(366.871676 225.470106)rotate(-90)">
     <text>
      <tspan style="font: 8px 'DejaVu Sans'" x="0" y="-0.171875">Δ</tspan>
      <tspan style="font: 8px 'Arial'" x="5.472656 9.921875 16.585938 21.035156 26.8125 29.035156 33.484375 35.261719 39.710938 45.046875" y="-0.171875">ompR bioB*</tspan>
     </text>
    </g>
   </g>
  </g>
 </g>
 <defs>
  <clipPath id="p01d871153a">
   <rect x="46.015313" y="10.778906" width="334.8" height="217.44"/>
  </clipPath>
 </defs>
</svg>
