<?xml version="1.0" encoding="utf-8" standalone="no"?>
<!DOCTYPE svg PUBLIC "-//W3C//DTD SVG 1.1//EN"
  "http://www.w3.org/Graphics/SVG/1.1/DTD/svg11.dtd">
<svg xmlns:xlink="http://www.w3.org/1999/xlink" width="432pt" height="288pt" viewBox="0 0 432 288" xmlns="http://www.w3.org/2000/svg" version="1.1">
 <metadata>
  <rdf:RDF xmlns:dc="http://purl.org/dc/elements/1.1/" xmlns:cc="http://creativecommons.org/ns#" xmlns:rdf="http://www.w3.org/1999/02/22-rdf-syntax-ns#">
   <cc:Work>
    <dc:type rdf:resource="http://purl.org/dc/dcmitype/StillImage"/>
    <dc:date>2022-07-12T11:06:47.232832</dc:date>
    <dc:format>image/svg+xml</dc:format>
    <dc:creator>
     <cc:Agent>
      <dc:title>Matplotlib v3.5.1, https://matplotlib.org/</dc:title>
     </cc:Agent>
    </dc:creator>
   </cc:Work>
  </rdf:RDF>
 </metadata>
 <defs>
  <style type="text/css">*{stroke-linejoin: round; stroke-linecap: butt}</style>
 </defs>
 <g id="figure_1">
  <g id="patch_1">
   <path d="M 0 288 
L 432 288 
L 432 0 
L 0 0 
L 0 288 
z
" style="fill: none"/>
  </g>
  <g id="axes_1">
   <g id="patch_2">
    <path d="M 54 252 
L 388.8 252 
L 388.8 34.56 
L 54 34.56 
z
" style="fill: #ffffff"/>
   </g>
   <g id="patch_3">
    <path d="M 54 39.09 
L 204.057149 39.09 
L 204.057149 43.62 
L 54 43.62 
z
" clip-path="url(#pc8b4dd09cf)" style="fill: #1f77b4"/>
   </g>
   <g id="patch_4">
    <path d="M 54 57.21 
L 253.765921 57.21 
L 253.765921 61.74 
L 54 61.74 
z
" clip-path="url(#pc8b4dd09cf)" style="fill: #1f77b4"/>
   </g>
   <g id="patch_5">
    <path d="M 54 75.33 
L 212.9336 75.33 
L 212.9336 79.86 
L 54 79.86 
z
" clip-path="url(#pc8b4dd09cf)" style="fill: #1f77b4"/>
   </g>
   <g id="patch_6">
    <path d="M 54 93.45 
L 104.307431 93.45 
L 104.307431 97.98 
L 54 97.98 
z
" clip-path="url(#pc8b4dd09cf)" style="fill: #1f77b4"/>
   </g>
   <g id="patch_7">
    <path d="M 54 111.57 
L 120.321344 111.57 
L 120.321344 116.1 
L 54 116.1 
z
" clip-path="url(#pc8b4dd09cf)" style="fill: #1f77b4"/>
   </g>
   <g id="patch_8">
    <path d="M 54 129.69 
L 98.249368 129.69 
L 98.249368 134.22 
L 54 134.22 
z
" clip-path="url(#pc8b4dd09cf)" style="fill: #1f77b4"/>
   </g>
   <g id="patch_9">
    <path d="M 54 147.81 
L 104.005359 147.81 
L 104.005359 152.34 
L 54 152.34 
z
" clip-path="url(#pc8b4dd09cf)" style="fill: #1f77b4"/>
   </g>
   <g id="patch_10">
    <path d="M 54 165.93 
L 59.032982 165.93 
L 59.032982 170.46 
L 54 170.46 
z
" clip-path="url(#pc8b4dd09cf)" style="fill: #1f77b4"/>
   </g>
   <g id="patch_11">
    <path d="M 54 184.05 
L 61.094935 184.05 
L 61.094935 188.58 
L 54 188.58 
z
" clip-path="url(#pc8b4dd09cf)" style="fill: #1f77b4"/>
   </g>
   <g id="patch_12">
    <path d="M 54 202.17 
L 63.952718 202.17 
L 63.952718 206.7 
L 54 206.7 
z
" clip-path="url(#pc8b4dd09cf)" style="fill: #1f77b4"/>
   </g>
   <g id="patch_13">
    <path d="M 54 220.29 
L 61.122596 220.29 
L 61.122596 224.82 
L 54 224.82 
z
" clip-path="url(#pc8b4dd09cf)" style="fill: #1f77b4"/>
   </g>
   <g id="patch_14">
    <path d="M 54 238.41 
L 76.479419 238.41 
L 76.479419 242.94 
L 54 242.94 
z
" clip-path="url(#pc8b4dd09cf)" style="fill: #1f77b4"/>
   </g>
   <g id="patch_15">
    <path d="M 54 43.62 
L 304.095248 43.62 
L 304.095248 48.15 
L 54 48.15 
z
" clip-path="url(#pc8b4dd09cf)" style="fill: #ff7f0e"/>
   </g>
   <g id="patch_16">
    <path d="M 54 61.74 
L 372.857143 61.74 
L 372.857143 66.27 
L 54 66.27 
z
" clip-path="url(#pc8b4dd09cf)" style="fill: #ff7f0e"/>
   </g>
   <g id="patch_17">
    <path d="M 54 79.86 
L 310.239885 79.86 
L 310.239885 84.39 
L 54 84.39 
z
" clip-path="url(#pc8b4dd09cf)" style="fill: #ff7f0e"/>
   </g>
   <g id="patch_18">
    <path d="M 54 97.98 
L 149.584118 97.98 
L 149.584118 102.51 
L 54 102.51 
z
" clip-path="url(#pc8b4dd09cf)" style="fill: #ff7f0e"/>
   </g>
   <g id="patch_19">
    <path d="M 54 116.1 
L 180.010554 116.1 
L 180.010554 120.63 
L 54 120.63 
z
" clip-path="url(#pc8b4dd09cf)" style="fill: #ff7f0e"/>
   </g>
   <g id="patch_20">
    <path d="M 54 134.22 
L 159.092249 134.22 
L 159.092249 138.75 
L 54 138.75 
z
" clip-path="url(#pc8b4dd09cf)" style="fill: #ff7f0e"/>
   </g>
   <g id="patch_21">
    <path d="M 54 152.34 
L 154.010718 152.34 
L 154.010718 156.87 
L 54 156.87 
z
" clip-path="url(#pc8b4dd09cf)" style="fill: #ff7f0e"/>
   </g>
   <g id="patch_22">
    <path d="M 54 170.46 
L 72.873683 170.46 
L 72.873683 174.99 
L 54 174.99 
z
" clip-path="url(#pc8b4dd09cf)" style="fill: #ff7f0e"/>
   </g>
   <g id="patch_23">
    <path d="M 54 188.58 
L 74.271243 188.58 
L 74.271243 193.11 
L 54 193.11 
z
" clip-path="url(#pc8b4dd09cf)" style="fill: #ff7f0e"/>
   </g>
   <g id="patch_24">
    <path d="M 54 206.7 
L 95.469658 206.7 
L 95.469658 211.23 
L 54 211.23 
z
" clip-path="url(#pc8b4dd09cf)" style="fill: #ff7f0e"/>
   </g>
   <g id="patch_25">
    <path d="M 54 224.82 
L 89.612978 224.82 
L 89.612978 229.35 
L 54 229.35 
z
" clip-path="url(#pc8b4dd09cf)" style="fill: #ff7f0e"/>
   </g>
   <g id="patch_26">
    <path d="M 54 242.94 
L 117.888876 242.94 
L 117.888876 247.47 
L 54 247.47 
z
" clip-path="url(#pc8b4dd09cf)" style="fill: #ff7f0e"/>
   </g>
   <g id="matplotlib.axis_1">
    <g id="xtick_1">
     <g id="line2d_1">
      <defs>
       <path id="m00a92f269a" d="M 0 0 
L 0 3.5 
" style="stroke: #000000; stroke-width: 0.8"/>
      </defs>
      <g>
       <use xlink:href="#m00a92f269a" x="54" y="252" style="stroke: #000000; stroke-width: 0.8"/>
      </g>
     </g>
     <g id="text_1">
      <text style="font: 10px 'sans-serif'; text-anchor: middle" x="54" y="266.598437" transform="rotate(-0, 54, 266.598437)">0.0</text>
     </g>
    </g>
    <g id="xtick_2">
     <g id="line2d_2">
      <g>
       <use xlink:href="#m00a92f269a" x="112.462265" y="252" style="stroke: #000000; stroke-width: 0.8"/>
      </g>
     </g>
     <g id="text_2">
      <text style="font: 10px 'sans-serif'; text-anchor: middle" x="112.462265" y="266.598437" transform="rotate(-0, 112.462265, 266.598437)">0.2</text>
     </g>
    </g>
    <g id="xtick_3">
     <g id="line2d_3">
      <g>
       <use xlink:href="#m00a92f269a" x="170.92453" y="252" style="stroke: #000000; stroke-width: 0.8"/>
      </g>
     </g>
     <g id="text_3">
      <text style="font: 10px 'sans-serif'; text-anchor: middle" x="170.92453" y="266.598437" transform="rotate(-0, 170.92453, 266.598437)">0.4</text>
     </g>
    </g>
    <g id="xtick_4">
     <g id="line2d_4">
      <g>
       <use xlink:href="#m00a92f269a" x="229.386795" y="252" style="stroke: #000000; stroke-width: 0.8"/>
      </g>
     </g>
     <g id="text_4">
      <text style="font: 10px 'sans-serif'; text-anchor: middle" x="229.386795" y="266.598437" transform="rotate(-0, 229.386795, 266.598437)">0.6</text>
     </g>
    </g>
    <g id="xtick_5">
     <g id="line2d_5">
      <g>
       <use xlink:href="#m00a92f269a" x="287.84906" y="252" style="stroke: #000000; stroke-width: 0.8"/>
      </g>
     </g>
     <g id="text_5">
      <text style="font: 10px 'sans-serif'; text-anchor: middle" x="287.84906" y="266.598437" transform="rotate(-0, 287.84906, 266.598437)">0.8</text>
     </g>
    </g>
    <g id="xtick_6">
     <g id="line2d_6">
      <g>
       <use xlink:href="#m00a92f269a" x="346.311325" y="252" style="stroke: #000000; stroke-width: 0.8"/>
      </g>
     </g>
     <g id="text_6">
      <text style="font: 10px 'sans-serif'; text-anchor: middle" x="346.311325" y="266.598437" transform="rotate(-0, 346.311325, 266.598437)">1.0</text>
     </g>
    </g>
    <g id="text_7">
     <text style="font: 16px 'sans-serif'; text-anchor: middle" x="221.4" y="284.835625" transform="rotate(-0, 221.4, 284.835625)">Concentration (M)</text>
    </g>
   </g>
   <g id="matplotlib.axis_2">
    <g id="ytick_1">
     <g id="line2d_7">
      <defs>
       <path id="mf09f0775a4" d="M 0 0 
L -3.5 0 
" style="stroke: #000000; stroke-width: 0.8"/>
      </defs>
      <g>
       <use xlink:href="#mf09f0775a4" x="54" y="43.62" style="stroke: #000000; stroke-width: 0.8"/>
      </g>
     </g>
     <g id="text_8">
      <text style="font: 10px 'sans-serif'; text-anchor: end" x="47" y="47.419219" transform="rotate(-0, 47, 47.419219)">NaCl (66%)</text>
     </g>
    </g>
    <g id="ytick_2">
     <g id="line2d_8">
      <g>
       <use xlink:href="#mf09f0775a4" x="54" y="61.74" style="stroke: #000000; stroke-width: 0.8"/>
      </g>
     </g>
     <g id="text_9">
      <text style="font: 10px 'sans-serif'; text-anchor: end" x="47" y="65.539219" transform="rotate(-0, 47, 65.539219)">12PD (59%)</text>
     </g>
    </g>
    <g id="ytick_3">
     <g id="line2d_9">
      <g>
       <use xlink:href="#mf09f0775a4" x="54" y="79.86" style="stroke: #000000; stroke-width: 0.8"/>
      </g>
     </g>
     <g id="text_10">
      <text style="font: 10px 'sans-serif'; text-anchor: end" x="47" y="83.659219" transform="rotate(-0, 47, 83.659219)">23BD (61%)</text>
     </g>
    </g>
    <g id="ytick_4">
     <g id="line2d_10">
      <g>
       <use xlink:href="#mf09f0775a4" x="54" y="97.98" style="stroke: #000000; stroke-width: 0.8"/>
      </g>
     </g>
     <g id="text_11">
      <text style="font: 10px 'sans-serif'; text-anchor: end" x="47" y="101.779219" transform="rotate(-0, 47, 101.779219)">HDMA (89%)</text>
     </g>
    </g>
    <g id="ytick_5">
     <g id="line2d_11">
      <g>
       <use xlink:href="#mf09f0775a4" x="54" y="116.1" style="stroke: #000000; stroke-width: 0.8"/>
      </g>
     </g>
     <g id="text_12">
      <text style="font: 10px 'sans-serif'; text-anchor: end" x="47" y="119.899219" transform="rotate(-0, 47, 119.899219)">PUTR (89%)</text>
     </g>
    </g>
    <g id="ytick_6">
     <g id="line2d_12">
      <g>
       <use xlink:href="#mf09f0775a4" x="54" y="134.22" style="stroke: #000000; stroke-width: 0.8"/>
      </g>
     </g>
     <g id="text_13">
      <text style="font: 10px 'sans-serif'; text-anchor: end" x="47" y="138.019219" transform="rotate(-0, 47, 138.019219)">GLUT (137%)</text>
     </g>
    </g>
    <g id="ytick_7">
     <g id="line2d_13">
      <g>
       <use xlink:href="#mf09f0775a4" x="54" y="152.34" style="stroke: #000000; stroke-width: 0.8"/>
      </g>
     </g>
     <g id="text_14">
      <text style="font: 10px 'sans-serif'; text-anchor: end" x="47" y="156.139219" transform="rotate(-0, 47, 156.139219)">ADIP (100%)</text>
     </g>
    </g>
    <g id="ytick_8">
     <g id="line2d_14">
      <g>
       <use xlink:href="#mf09f0775a4" x="54" y="170.46" style="stroke: #000000; stroke-width: 0.8"/>
      </g>
     </g>
     <g id="text_15">
      <text style="font: 10px 'sans-serif'; text-anchor: end" x="47" y="174.259219" transform="rotate(-0, 47, 174.259219)">HEXA (275%)</text>
     </g>
    </g>
    <g id="ytick_9">
     <g id="line2d_15">
      <g>
       <use xlink:href="#mf09f0775a4" x="54" y="188.58" style="stroke: #000000; stroke-width: 0.8"/>
      </g>
     </g>
     <g id="text_16">
      <text style="font: 10px 'sans-serif'; text-anchor: end" x="47" y="192.379219" transform="rotate(-0, 47, 192.379219)">OCTA (185%)</text>
     </g>
    </g>
    <g id="ytick_10">
     <g id="line2d_16">
      <g>
       <use xlink:href="#mf09f0775a4" x="54" y="206.7" style="stroke: #000000; stroke-width: 0.8"/>
      </g>
     </g>
     <g id="text_17">
      <text style="font: 10px 'sans-serif'; text-anchor: end" x="47" y="210.499219" transform="rotate(-0, 47, 210.499219)">IBUA (316%)</text>
     </g>
    </g>
    <g id="ytick_11">
     <g id="line2d_17">
      <g>
       <use xlink:href="#mf09f0775a4" x="54" y="224.82" style="stroke: #000000; stroke-width: 0.8"/>
      </g>
     </g>
     <g id="text_18">
      <text style="font: 10px 'sans-serif'; text-anchor: end" x="47" y="228.619219" transform="rotate(-0, 47, 228.619219)">COUM (400%)</text>
     </g>
    </g>
    <g id="ytick_12">
     <g id="line2d_18">
      <g>
       <use xlink:href="#mf09f0775a4" x="54" y="242.94" style="stroke: #000000; stroke-width: 0.8"/>
      </g>
     </g>
     <g id="text_19">
      <text style="font: 10px 'sans-serif'; text-anchor: end" x="47" y="246.739219" transform="rotate(-0, 47, 246.739219)">BUT (184%)</text>
     </g>
    </g>
    <g id="text_20">
     <text style="font: 16px 'sans-serif'; text-anchor: middle" x="-30.699375" y="143.28" transform="rotate(-90, -30.699375, 143.28)">Compounds</text>
    </g>
   </g>
   <g id="patch_27">
    <path d="M 54 252 
L 54 34.56 
" style="fill: none; stroke: #000000; stroke-width: 0.8; stroke-linejoin: miter; stroke-linecap: square"/>
   </g>
   <g id="patch_28">
    <path d="M 388.8 252 
L 388.8 34.56 
" style="fill: none; stroke: #000000; stroke-width: 0.8; stroke-linejoin: miter; stroke-linecap: square"/>
   </g>
   <g id="patch_29">
    <path d="M 54 252 
L 388.8 252 
" style="fill: none; stroke: #000000; stroke-width: 0.8; stroke-linejoin: miter; stroke-linecap: square"/>
   </g>
   <g id="patch_30">
    <path d="M 54 34.56 
L 388.8 34.56 
" style="fill: none; stroke: #000000; stroke-width: 0.8; stroke-linejoin: miter; stroke-linecap: square"/>
   </g>
   <g id="legend_1">
    <g id="patch_31">
     <path d="M 274.760938 247 
L 381.8 247 
Q 383.8 247 383.8 245 
L 383.8 216.0875 
Q 383.8 214.0875 381.8 214.0875 
L 274.760938 214.0875 
Q 272.760938 214.0875 272.760938 216.0875 
L 272.760938 245 
Q 272.760938 247 274.760938 247 
z
" style="fill: #ffffff; opacity: 0.8; stroke: #cccccc; stroke-linejoin: miter"/>
    </g>
    <g id="patch_32">
     <path d="M 276.760938 225.685937 
L 296.760938 225.685937 
L 296.760938 218.685937 
L 276.760938 218.685937 
z
" style="fill: #1f77b4"/>
    </g>
    <g id="text_21">
     <text style="font: 10px 'sans-serif'; text-anchor: start" x="304.760938" y="225.685937" transform="rotate(-0, 304.760938, 225.685937)">Initial_ALE_mol</text>
    </g>
    <g id="patch_33">
     <path d="M 276.760938 240.642188 
L 296.760938 240.642188 
L 296.760938 233.642188 
L 276.760938 233.642188 
z
" style="fill: #ff7f0e"/>
    </g>
    <g id="text_22">
     <text style="font: 10px 'sans-serif'; text-anchor: start" x="304.760938" y="240.642188" transform="rotate(-0, 304.760938, 240.642188)">Final_ALE_mol</text>
    </g>
   </g>
  </g>
 </g>
 <defs>
  <clipPath id="pc8b4dd09cf">
   <rect x="54" y="34.56" width="334.8" height="217.44"/>
  </clipPath>
 </defs>
</svg>
