<?xml version="1.0" encoding="utf-8" standalone="no"?>
<!DOCTYPE svg PUBLIC "-//W3C//DTD SVG 1.1//EN"
  "http://www.w3.org/Graphics/SVG/1.1/DTD/svg11.dtd">
<svg xmlns:xlink="http://www.w3.org/1999/xlink" width="395.770803pt" height="296.145806pt" viewBox="0 0 395.770803 296.145806" xmlns="http://www.w3.org/2000/svg" version="1.1">
 <metadata>
  <rdf:RDF xmlns:dc="http://purl.org/dc/elements/1.1/" xmlns:cc="http://creativecommons.org/ns#" xmlns:rdf="http://www.w3.org/1999/02/22-rdf-syntax-ns#">
   <cc:Work>
    <dc:type rdf:resource="http://purl.org/dc/dcmitype/StillImage"/>
    <dc:date>2022-07-18T14:49:32.949930</dc:date>
    <dc:format>image/svg+xml</dc:format>
    <dc:creator>
     <cc:Agent>
      <dc:title>Matplotlib v3.5.1, https://matplotlib.org/</dc:title>
     </cc:Agent>
    </dc:creator>
   </cc:Work>
  </rdf:RDF>
 </metadata>
 <defs>
  <style type="text/css">*{stroke-linejoin: round; stroke-linecap: butt}</style>
 </defs>
 <g id="figure_1">
  <g id="patch_1">
   <path d="M 0 296.145806 
L 395.770803 296.145806 
L 395.770803 0 
L 0 0 
z
" style="fill: #ffffff"/>
  </g>
  <g id="axes_1">
   <g id="patch_2">
    <path d="M 46.015313 266.5984 
L 380.815313 266.5984 
L 380.815313 49.1584 
L 46.015313 49.1584 
z
" style="fill: #ffffff"/>
   </g>
   <g id="LineCollection_1">
    <path d="M 61.233494 191.855792 
L 61.233494 101.035262 
" clip-path="url(#p6baba6d268)" style="fill: none; stroke: #000000; stroke-width: 1.5"/>
    <path d="M 91.669858 143.231219 
L 91.669858 95.673399 
" clip-path="url(#p6baba6d268)" style="fill: none; stroke: #000000; stroke-width: 1.5"/>
    <path d="M 122.106222 84.071077 
L 122.106222 70.054198 
" clip-path="url(#p6baba6d268)" style="fill: none; stroke: #000000; stroke-width: 1.5"/>
    <path d="M 152.542585 164.287517 
L 152.542585 119.013236 
" clip-path="url(#p6baba6d268)" style="fill: none; stroke: #000000; stroke-width: 1.5"/>
    <path d="M 182.978949 59.026732 
L 182.978949 53.569152 
" clip-path="url(#p6baba6d268)" style="fill: none; stroke: #000000; stroke-width: 1.5"/>
    <path d="M 213.415313 182.561391 
L 213.415313 179.419591 
" clip-path="url(#p6baba6d268)" style="fill: none; stroke: #000000; stroke-width: 1.5"/>
    <path d="M 243.851676 118.876767 
L 243.851676 111.394083 
" clip-path="url(#p6baba6d268)" style="fill: none; stroke: #000000; stroke-width: 1.5"/>
    <path d="M 274.28804 194.651905 
L 274.28804 183.21065 
" clip-path="url(#p6baba6d268)" style="fill: none; stroke: #000000; stroke-width: 1.5"/>
    <path d="M 304.724403 264.261246 
L 304.724403 249.425626 
" clip-path="url(#p6baba6d268)" style="fill: none; stroke: #000000; stroke-width: 1.5"/>
    <path clip-path="url(#p6baba6d268)" style="fill: none; stroke: #000000; stroke-width: 1.5"/>
    <path d="M 365.597131 251.704197 
L 365.597131 246.010106 
" clip-path="url(#p6baba6d268)" style="fill: none; stroke: #000000; stroke-width: 1.5"/>
   </g>
   <g id="line2d_1"/>
   <g id="matplotlib.axis_1">
    <g id="xtick_1">
     <g id="line2d_2"/>
     <g id="text_1">
      <text style="fill: #262626; font: 9.5px 'sans-serif'" transform="translate(28.225447 276.926525)">1,2-propanediol</text>
      <text style="fill: #262626; font: 9.5px 'sans-serif'" transform="translate(61.233494 286.974556)"/>
     </g>
    </g>
    <g id="xtick_2">
     <g id="line2d_3"/>
     <g id="text_2">
      <text style="fill: #262626; font: 9.5px 'sans-serif'" transform="translate(91.669858 276.898322)"/>
      <text style="fill: #262626; font: 9.5px 'sans-serif'" transform="translate(61.565249 286.946353)">2,3-butanediol</text>
     </g>
    </g>
    <g id="xtick_3">
     <g id="line2d_4"/>
     <g id="text_3">
      <text style="fill: #262626; font: 9.5px 'sans-serif'" transform="translate(102.56962 276.898322)">Glutarate</text>
      <text style="fill: #262626; font: 9.5px 'sans-serif'" transform="translate(122.106222 286.946353)"/>
     </g>
    </g>
    <g id="xtick_4">
     <g id="line2d_5"/>
     <g id="text_4">
      <text style="fill: #262626; font: 9.5px 'sans-serif'" transform="translate(152.542585 276.898322)"/>
      <text style="fill: #262626; font: 9.5px 'sans-serif'" transform="translate(136.433406 286.946353)">Adipate</text>
     </g>
    </g>
    <g id="xtick_5">
     <g id="line2d_6"/>
     <g id="text_5">
      <text style="fill: #262626; font: 9.5px 'sans-serif'" transform="translate(160.538168 276.898322)">Putrescine</text>
      <text style="fill: #262626; font: 9.5px 'sans-serif'" transform="translate(182.978949 286.946353)"/>
     </g>
    </g>
    <g id="xtick_6">
     <g id="line2d_7"/>
     <g id="text_6">
      <text style="fill: #262626; font: 9.5px 'sans-serif'" transform="translate(213.415313 276.898322)"/>
      <text style="fill: #262626; font: 9.5px 'sans-serif'" transform="translate(199.429531 286.946353)">HMDA</text>
     </g>
    </g>
    <g id="xtick_7">
     <g id="line2d_8"/>
     <g id="text_7">
      <text style="fill: #262626; font: 9.5px 'sans-serif'" transform="translate(220.35402 276.898322)">Isobutyrate</text>
      <text style="fill: #262626; font: 9.5px 'sans-serif'" transform="translate(243.851676 287.057681)"/>
     </g>
    </g>
    <g id="xtick_8">
     <g id="line2d_9"/>
     <g id="text_8">
      <text style="fill: #262626; font: 9.5px 'sans-serif'" transform="translate(274.28804 276.898322)"/>
      <text style="fill: #262626; font: 9.5px 'sans-serif'" transform="translate(250.79261 286.946353)">Coumarate</text>
     </g>
    </g>
    <g id="xtick_9">
     <g id="line2d_10"/>
     <g id="text_9">
      <text style="fill: #262626; font: 9.5px 'sans-serif'" transform="translate(288.615224 276.898322)">Butanol</text>
      <text style="fill: #262626; font: 9.5px 'sans-serif'" transform="translate(304.724403 286.946353)"/>
     </g>
    </g>
    <g id="xtick_10">
     <g id="line2d_11"/>
     <g id="text_10">
      <text style="fill: #262626; font: 9.5px 'sans-serif'" transform="translate(335.160767 276.898322)"/>
      <text style="fill: #262626; font: 9.5px 'sans-serif'" transform="translate(313.244712 286.946353)">Octanoate</text>
     </g>
    </g>
    <g id="xtick_11">
     <g id="line2d_12"/>
     <g id="text_11">
      <text style="fill: #262626; font: 9.5px 'sans-serif'" transform="translate(342.623459 276.898322)">Hexanoate</text>
      <text style="fill: #262626; font: 9.5px 'sans-serif'" transform="translate(365.597131 286.946353)"/>
     </g>
    </g>
   </g>
   <g id="matplotlib.axis_2">
    <g id="ytick_1">
     <g id="line2d_13">
      <path d="M 46.015313 266.5984 
L 380.815313 266.5984 
" clip-path="url(#p6baba6d268)" style="fill: none; stroke: #cccccc; stroke-width: 0.8; stroke-linecap: round"/>
     </g>
     <g id="line2d_14"/>
     <g id="text_12">
      <text style="fill: #262626; font: 10px 'sans-serif'; text-anchor: end" x="42.515313" y="270.177306" transform="rotate(-0, 42.515313, 270.177306)">0</text>
     </g>
    </g>
    <g id="ytick_2">
     <g id="line2d_15">
      <path d="M 46.015313 223.1104 
L 380.815313 223.1104 
" clip-path="url(#p6baba6d268)" style="fill: none; stroke: #cccccc; stroke-width: 0.8; stroke-linecap: round"/>
     </g>
     <g id="line2d_16"/>
     <g id="text_13">
      <text style="fill: #262626; font: 10px 'sans-serif'; text-anchor: end" x="42.515313" y="226.689306" transform="rotate(-0, 42.515313, 226.689306)">20</text>
     </g>
    </g>
    <g id="ytick_3">
     <g id="line2d_17">
      <path d="M 46.015313 179.6224 
L 380.815313 179.6224 
" clip-path="url(#p6baba6d268)" style="fill: none; stroke: #cccccc; stroke-width: 0.8; stroke-linecap: round"/>
     </g>
     <g id="line2d_18"/>
     <g id="text_14">
      <text style="fill: #262626; font: 10px 'sans-serif'; text-anchor: end" x="42.515313" y="183.201306" transform="rotate(-0, 42.515313, 183.201306)">40</text>
     </g>
    </g>
    <g id="ytick_4">
     <g id="line2d_19">
      <path d="M 46.015313 136.1344 
L 380.815313 136.1344 
" clip-path="url(#p6baba6d268)" style="fill: none; stroke: #cccccc; stroke-width: 0.8; stroke-linecap: round"/>
     </g>
     <g id="line2d_20"/>
     <g id="text_15">
      <text style="fill: #262626; font: 10px 'sans-serif'; text-anchor: end" x="42.515313" y="139.713306" transform="rotate(-0, 42.515313, 139.713306)">60</text>
     </g>
    </g>
    <g id="ytick_5">
     <g id="line2d_21">
      <path d="M 46.015313 92.6464 
L 380.815313 92.6464 
" clip-path="url(#p6baba6d268)" style="fill: none; stroke: #cccccc; stroke-width: 0.8; stroke-linecap: round"/>
     </g>
     <g id="line2d_22"/>
     <g id="text_16">
      <text style="fill: #262626; font: 10px 'sans-serif'; text-anchor: end" x="42.515313" y="96.225306" transform="rotate(-0, 42.515313, 96.225306)">80</text>
     </g>
    </g>
    <g id="ytick_6">
     <g id="line2d_23">
      <path d="M 46.015313 49.1584 
L 380.815313 49.1584 
" clip-path="url(#p6baba6d268)" style="fill: none; stroke: #cccccc; stroke-width: 0.8; stroke-linecap: round"/>
     </g>
     <g id="line2d_24"/>
     <g id="text_17">
      <text style="fill: #262626; font: 10px 'sans-serif'; text-anchor: end" x="42.515313" y="52.737306" transform="rotate(-0, 42.515313, 52.737306)">100</text>
     </g>
    </g>
    <g id="text_18">
     <text style="fill: #262626; font: 16px 'sans-serif'; text-anchor: middle" x="18.6525" y="157.8784" transform="rotate(-90, 18.6525, 157.8784)">% reconstructed tolerance</text>
    </g>
   </g>
   <g id="patch_3">
    <path d="M 53.624403 266.5984 
L 68.842585 266.5984 
L 68.842585 146.445527 
L 53.624403 146.445527 
z
" clip-path="url(#p6baba6d268)" style="fill: #9cd4ee"/>
   </g>
   <g id="patch_4">
    <path d="M 84.060767 266.5984 
L 99.278949 266.5984 
L 99.278949 119.452309 
L 84.060767 119.452309 
z
" clip-path="url(#p6baba6d268)" style="fill: #9cd4ee"/>
   </g>
   <g id="patch_5">
    <path d="M 114.497131 266.5984 
L 129.715313 266.5984 
L 129.715313 77.062638 
L 114.497131 77.062638 
z
" clip-path="url(#p6baba6d268)" style="fill: #9cd4ee"/>
   </g>
   <g id="patch_6">
    <path d="M 144.933494 266.5984 
L 160.151676 266.5984 
L 160.151676 141.650377 
L 144.933494 141.650377 
z
" clip-path="url(#p6baba6d268)" style="fill: #9cd4ee"/>
   </g>
   <g id="patch_7">
    <path d="M 175.369858 266.5984 
L 190.58804 266.5984 
L 190.58804 56.297942 
L 175.369858 56.297942 
z
" clip-path="url(#p6baba6d268)" style="fill: #9cd4ee"/>
   </g>
   <g id="patch_8">
    <path d="M 205.806222 266.5984 
L 221.024403 266.5984 
L 221.024403 180.990491 
L 205.806222 180.990491 
z
" clip-path="url(#p6baba6d268)" style="fill: #9cd4ee"/>
   </g>
   <g id="patch_9">
    <path d="M 236.242585 266.5984 
L 251.460767 266.5984 
L 251.460767 115.135425 
L 236.242585 115.135425 
z
" clip-path="url(#p6baba6d268)" style="fill: #9cd4ee"/>
   </g>
   <g id="patch_10">
    <path d="M 266.678949 266.5984 
L 281.897131 266.5984 
L 281.897131 188.931278 
L 266.678949 188.931278 
z
" clip-path="url(#p6baba6d268)" style="fill: #9cd4ee"/>
   </g>
   <g id="patch_11">
    <path d="M 297.115313 266.5984 
L 312.333494 266.5984 
L 312.333494 256.843436 
L 297.115313 256.843436 
z
" clip-path="url(#p6baba6d268)" style="fill: #9cd4ee"/>
   </g>
   <g id="patch_12">
    <path d="M 327.551676 266.5984 
L 342.769858 266.5984 
L 342.769858 358.546575 
L 327.551676 358.546575 
z
" clip-path="url(#p6baba6d268)" style="fill: #9cd4ee"/>
   </g>
   <g id="patch_13">
    <path d="M 357.98804 266.5984 
L 373.206222 266.5984 
L 373.206222 248.857151 
L 357.98804 248.857151 
z
" clip-path="url(#p6baba6d268)" style="fill: #9cd4ee"/>
   </g>
   <g id="patch_14">
    <path d="M 46.015313 266.5984 
L 46.015313 49.1584 
" style="fill: none; stroke: #262626; stroke-width: 1.25; stroke-linejoin: miter; stroke-linecap: square"/>
   </g>
   <g id="patch_15">
    <path d="M 380.815313 266.5984 
L 380.815313 49.1584 
" style="fill: none; stroke: #262626; stroke-width: 1.25; stroke-linejoin: miter; stroke-linecap: square"/>
   </g>
   <g id="patch_16">
    <path d="M 46.015313 266.5984 
L 380.815313 266.5984 
" style="fill: none; stroke: #262626; stroke-width: 1.25; stroke-linejoin: miter; stroke-linecap: square"/>
   </g>
   <g id="patch_17">
    <path d="M 46.015313 49.1584 
L 380.815313 49.1584 
" style="fill: none; stroke: #262626; stroke-width: 1.25; stroke-linejoin: miter; stroke-linecap: square"/>
   </g>
   <g id="text_19">
    <!-- $\Delta$sspA -->
    <g style="fill: #262626" transform="translate(62.50804 72.5024)rotate(-90)">
     <text>
      <tspan style="font: 8px 'DejaVu Sans'" x="0" y="-0.171875">Δ</tspan>
      <tspan style="font: 8px 'Arial'" x="5.472656 9.472656 13.472656 17.921875" y="-0.171875">sspA</tspan>
     </text>
    </g>
   </g>
   <g id="text_20">
    <!-- $\Delta$sspA -->
    <g style="fill: #262626" transform="translate(92.944403 74.6768)rotate(-90)">
     <text>
      <tspan style="font: 8px 'DejaVu Sans'" x="0" y="-0.171875">Δ</tspan>
      <tspan style="font: 8px 'Arial'" x="5.472656 9.472656 13.472656 17.921875" y="-0.171875">sspA</tspan>
     </text>
    </g>
   </g>
   <g id="text_21">
    <!-- $\Delta$kgtP $\Delta$proV $\Delta$ybjL -->
    <g style="fill: #262626" transform="translate(123.380767 77.0112)rotate(-90)">
     <text>
      <tspan style="font: 8px 'DejaVu Sans'" x="0 23.703125 48.296875" y="-0.171875">ΔΔΔ</tspan>
      <tspan style="font: 8px 'Arial'" x="5.472656 9.472656 13.921875 16.144531 21.480469 29.175781 33.625 36.289062 40.738281 46.074219 53.769531 57.769531 62.21875 63.996094" y="-0.171875">kgtP proV ybjL</tspan>
     </text>
    </g>
   </g>
   <g id="text_22">
    <!-- $\Delta$kgtP $\Delta$proV $\Delta$ybjL -->
    <g style="fill: #262626" transform="translate(153.817131 79.1856)rotate(-90)">
     <text>
      <tspan style="font: 8px 'DejaVu Sans'" x="0 23.703125 48.296875" y="-0.171875">ΔΔΔ</tspan>
      <tspan style="font: 8px 'Arial'" x="5.472656 9.472656 13.921875 16.144531 21.480469 29.175781 33.625 36.289062 40.738281 46.074219 53.769531 57.769531 62.21875 63.996094" y="-0.171875">kgtP proV ybjL</tspan>
     </text>
    </g>
   </g>
   <g id="text_23">
    <!-- $\Delta$proV rpsG1* mreB* -->
    <g style="fill: #262626" transform="translate(184.253494 81.2)rotate(-90)">
     <text>
      <tspan style="font: 8px 'DejaVu Sans'" x="0" y="-0.171875">Δ</tspan>
      <tspan style="font: 8px 'Arial'" x="5.472656 9.921875 12.585938 17.035156 22.371094 24.59375 27.257812 31.707031 35.707031 41.929688 46.378906 49.492188 51.714844 58.378906 61.042969 65.492188 70.828125" y="-0.171875">proV rpsG1* mreB*</tspan>
     </text>
    </g>
   </g>
   <g id="text_24">
    <!-- $\Delta$proV rpsG1* mreB* -->
    <g style="fill: #262626" transform="translate(214.689858 83.3744)rotate(-90)">
     <text>
      <tspan style="font: 8px 'DejaVu Sans'" x="0" y="-0.171875">Δ</tspan>
      <tspan style="font: 8px 'Arial'" x="5.472656 9.921875 12.585938 17.035156 22.371094 24.59375 27.257812 31.707031 35.707031 41.929688 46.378906 49.492188 51.714844 58.378906 61.042969 65.492188 70.828125" y="-0.171875">proV rpsG1* mreB*</tspan>
     </text>
    </g>
   </g>
   <g id="text_25">
    <!-- $\Delta$pykF $\Delta$rpoS -->
    <g style="fill: #262626" transform="translate(245.126222 85.7088)rotate(-90)">
     <text>
      <tspan style="font: 8px 'DejaVu Sans'" x="0 25.03125" y="-0.171875">ΔΔ</tspan>
      <tspan style="font: 8px 'Arial'" x="5.472656 9.921875 13.921875 17.921875 22.808594 30.503906 33.167969 37.617188 42.066406" y="-0.171875">pykF rpoS</tspan>
     </text>
    </g>
   </g>
   <g id="text_26">
    <!-- $\Delta$nadR rpoA* -->
    <g style="fill: #262626" transform="translate(275.562585 87.7232)rotate(-90)">
     <text>
      <tspan style="font: 8px 'DejaVu Sans'" x="0" y="-0.171875">Δ</tspan>
      <tspan style="font: 8px 'Arial'" x="5.472656 9.921875 14.371094 18.820312 24.597656 26.820312 29.484375 33.933594 38.382812 43.71875" y="-0.171875">nadR rpoA*</tspan>
     </text>
    </g>
   </g>
   <g id="text_27">
    <!-- $\Delta$rob $\Delta$yobF -->
    <g style="fill: #262626" transform="translate(305.998949 90.0576)rotate(-90)">
     <text>
      <tspan style="font: 8px 'DejaVu Sans'" x="0 19.257812" y="-0.171875">ΔΔ</tspan>
      <tspan style="font: 8px 'Arial'" x="5.472656 8.136719 12.585938 17.035156 24.730469 28.730469 33.179688 37.628906" y="-0.171875">rob yobF</tspan>
     </text>
    </g>
   </g>
   <g id="text_28">
    <!-- $\Delta$gtrS -->
    <g style="fill: #262626" transform="translate(336.435313 92.232)rotate(-90)">
     <text>
      <tspan style="font: 8px 'DejaVu Sans'" x="0" y="-0.171875">Δ</tspan>
      <tspan style="font: 8px 'Arial'" x="5.472656 9.921875 12.144531 14.808594" y="-0.171875">gtrS</tspan>
     </text>
    </g>
   </g>
   <g id="text_29">
    <!-- $\Delta$mdtK -->
    <g style="fill: #262626" transform="translate(366.757926 94.2364)rotate(-90)">
     <text>
      <tspan style="font: 8px 'DejaVu Sans'" x="0" y="-0.171875">Δ</tspan>
      <tspan style="font: 8px 'Arial'" x="5.472656 12.136719 16.585938 18.808594" y="-0.171875">mdtK</tspan>
     </text>
    </g>
   </g>
  </g>
 </g>
 <defs>
  <clipPath id="p6baba6d268">
   <rect x="46.015313" y="49.1584" width="334.8" height="217.44"/>
  </clipPath>
 </defs>
</svg>
