<?xml version="1.0" encoding="utf-8" standalone="no"?>
<!DOCTYPE svg PUBLIC "-//W3C//DTD SVG 1.1//EN"
  "http://www.w3.org/Graphics/SVG/1.1/DTD/svg11.dtd">
<svg xmlns:xlink="http://www.w3.org/1999/xlink" width="432pt" height="288pt" viewBox="0 0 432 288" xmlns="http://www.w3.org/2000/svg" version="1.1">
 <metadata>
  <rdf:RDF xmlns:dc="http://purl.org/dc/elements/1.1/" xmlns:cc="http://creativecommons.org/ns#" xmlns:rdf="http://www.w3.org/1999/02/22-rdf-syntax-ns#">
   <cc:Work>
    <dc:type rdf:resource="http://purl.org/dc/dcmitype/StillImage"/>
    <dc:date>2022-08-25T14:57:19.910438</dc:date>
    <dc:format>image/svg+xml</dc:format>
    <dc:creator>
     <cc:Agent>
      <dc:title>Matplotlib v3.5.1, https://matplotlib.org/</dc:title>
     </cc:Agent>
    </dc:creator>
   </cc:Work>
  </rdf:RDF>
 </metadata>
 <defs>
  <style type="text/css">*{stroke-linejoin: round; stroke-linecap: butt}</style>
 </defs>
 <g id="figure_1">
  <g id="patch_1">
   <path d="M 0 288 
L 432 288 
L 432 0 
L 0 0 
z
" style="fill: #ffffff"/>
  </g>
  <g id="axes_1">
   <g id="matplotlib.axis_1"/>
   <g id="matplotlib.axis_2">
    <g id="text_1">
     <text style="fill: #262626; font: 9.6px 'sans-serif'; text-anchor: middle" x="106.772" y="143.28" transform="rotate(-90, 106.772, 143.28)">function</text>
    </g>
   </g>
   <g id="patch_2">
    <path d="M 308.376 143.28 
C 308.376 128.82547 304.772705 114.596381 297.89311 101.884001 
C 291.013514 89.171621 281.072213 78.372489 268.971366 70.46661 
C 256.870518 62.560731 242.987587 57.794714 228.582426 56.601068 
C 214.177266 55.407421 199.699218 57.823379 186.462145 63.629696 
L 221.4 143.28 
L 308.376 143.28 
z
" style="fill: #1f77b4; stroke: #ffffff; stroke-width: 0.8; stroke-linejoin: miter"/>
   </g>
   <g id="patch_3">
    <path d="M 186.462145 63.629696 
C 175.448277 68.460826 165.555245 75.524314 157.409681 84.372754 
C 149.264117 93.221194 143.041713 103.663734 139.136601 115.038935 
C 135.231489 126.414136 133.727898 138.476647 134.721067 150.462418 
C 135.714236 162.44819 139.182743 174.098701 144.90689 184.675999 
L 221.4 143.28 
L 186.462145 63.629696 
z
" style="fill: #ff7f0e; stroke: #ffffff; stroke-width: 0.8; stroke-linejoin: miter"/>
   </g>
   <g id="patch_4">
    <path d="M 144.90689 184.675999 
C 150.631038 195.253297 158.487361 204.529241 167.978235 211.916285 
C 177.469109 219.303328 188.389824 224.642141 200.048655 227.594558 
C 211.707486 230.546975 223.852963 231.049315 235.715781 229.06976 
C 247.5786 227.090206 258.902891 222.671453 268.971366 216.09339 
L 221.4 143.28 
L 144.90689 184.675999 
z
" style="fill: #2ca02c; stroke: #ffffff; stroke-width: 0.8; stroke-linejoin: miter"/>
   </g>
   <g id="patch_5">
    <path d="M 268.971366 216.09339 
C 277.015924 210.837617 284.134152 204.284826 290.036287 196.701762 
C 295.938422 189.118698 300.543277 180.60967 303.663402 171.521057 
L 221.4 143.28 
L 268.971366 216.09339 
z
" style="fill: #d62728; stroke: #ffffff; stroke-width: 0.8; stroke-linejoin: miter"/>
   </g>
   <g id="patch_6">
    <path d="M 303.663402 171.521057 
C 305.220812 166.984475 306.400289 162.326826 307.189761 157.595775 
C 307.979234 152.864724 308.376 148.076464 308.376 143.279996 
L 221.4 143.28 
L 303.663402 171.521057 
z
" style="fill: #9467bd; stroke: #ffffff; stroke-width: 0.8; stroke-linejoin: miter"/>
   </g>
   <g id="text_2">
    <text style="fill: #262626; font: 8.8px 'sans-serif'; text-anchor: start" x="273.728502" y="65.460209" transform="rotate(-0, 273.728502, 65.460209)">Transport</text>
   </g>
   <g id="text_3">
    <text style="fill: #262626; font: 9.6px 'sans-serif'; text-anchor: middle" x="249.94282" y="102.073716" transform="rotate(-0, 249.94282, 102.073716)">31.6%</text>
   </g>
   <g id="text_4">
    <text style="fill: #262626; font: 8.8px 'sans-serif'; text-anchor: end" x="130.910261" y="114.489766" transform="rotate(-0, 130.910261, 114.489766)">Tc/Tl machineries</text>
   </g>
   <g id="text_5">
    <text style="fill: #262626; font: 9.6px 'sans-serif'; text-anchor: middle" x="172.041961" y="128.817111" transform="rotate(-0, 172.041961, 128.817111)">26.3%</text>
   </g>
   <g id="text_6">
    <text style="fill: #262626; font: 8.8px 'sans-serif'; text-anchor: end" x="197.913521" y="238.303014" transform="rotate(-0, 197.913521, 238.303014)">Stress signaling</text>
   </g>
   <g id="text_7">
    <text style="fill: #262626; font: 9.6px 'sans-serif'; text-anchor: middle" x="208.589193" y="196.350485" transform="rotate(-0, 208.589193, 196.350485)">26.3%</text>
   </g>
   <g id="text_8">
    <text style="fill: #262626; font: 8.8px 'sans-serif'; text-anchor: start" x="296.899916" y="204.318876" transform="rotate(-0, 296.899916, 204.318876)">Membrane components</text>
   </g>
   <g id="text_9">
    <text style="fill: #262626; font: 9.6px 'sans-serif'; text-anchor: middle" x="262.581772" y="177.814807" transform="rotate(-0, 262.581772, 177.814807)">10.5%</text>
   </g>
   <g id="text_10">
    <text style="fill: #262626; font: 8.8px 'sans-serif'; text-anchor: start" x="315.768738" y="161.30229" transform="rotate(-0, 315.768738, 161.30229)">Metabolism</text>
   </g>
   <g id="text_11">
    <text style="fill: #262626; font: 9.6px 'sans-serif'; text-anchor: middle" x="272.873857" y="154.351215" transform="rotate(-0, 272.873857, 154.351215)">5.3%</text>
   </g>
  </g>
 </g>
</svg>
