<?xml version="1.0" encoding="utf-8" standalone="no"?>
<!DOCTYPE svg PUBLIC "-//W3C//DTD SVG 1.1//EN"
  "http://www.w3.org/Graphics/SVG/1.1/DTD/svg11.dtd">
<svg xmlns:xlink="http://www.w3.org/1999/xlink" width="388.90631pt" height="326.254606pt" viewBox="0 0 388.90631 326.254606" xmlns="http://www.w3.org/2000/svg" version="1.1">
 <metadata>
  <rdf:RDF xmlns:dc="http://purl.org/dc/elements/1.1/" xmlns:cc="http://creativecommons.org/ns#" xmlns:rdf="http://www.w3.org/1999/02/22-rdf-syntax-ns#">
   <cc:Work>
    <dc:type rdf:resource="http://purl.org/dc/dcmitype/StillImage"/>
    <dc:date>2022-05-19T19:25:15.814263</dc:date>
    <dc:format>image/svg+xml</dc:format>
    <dc:creator>
     <cc:Agent>
      <dc:title>Matplotlib v3.5.0, https://matplotlib.org/</dc:title>
     </cc:Agent>
    </dc:creator>
   </cc:Work>
  </rdf:RDF>
 </metadata>
 <defs>
  <style type="text/css">*{stroke-linejoin: round; stroke-linecap: butt}</style>
 </defs>
 <g id="figure_1">
  <g id="patch_1">
   <path d="M 0 326.254606 
L 388.90631 326.254606 
L 388.90631 0 
L 0 0 
z
" style="fill: #ffffff"/>
  </g>
  <g id="axes_1">
   <g id="patch_2">
    <path d="M 46.015313 296.7072 
L 380.815313 296.7072 
L 380.815313 79.2672 
L 46.015313 79.2672 
z
" style="fill: #ffffff"/>
   </g>
   <g id="LineCollection_1">
    <path d="M 61.233494 221.964592 
L 61.233494 131.144062 
" clip-path="url(#p5b7a816620)" style="fill: none; stroke: #000000; stroke-width: 1.5"/>
    <path d="M 91.669858 173.340019 
L 91.669858 125.782199 
" clip-path="url(#p5b7a816620)" style="fill: none; stroke: #000000; stroke-width: 1.5"/>
    <path d="M 122.106222 172.613066 
L 122.106222 166.843966 
" clip-path="url(#p5b7a816620)" style="fill: none; stroke: #000000; stroke-width: 1.5"/>
    <path d="M 152.542585 89.135532 
L 152.542585 83.677952 
" clip-path="url(#p5b7a816620)" style="fill: none; stroke: #000000; stroke-width: 1.5"/>
    <path d="M 182.978949 114.179877 
L 182.978949 100.162998 
" clip-path="url(#p5b7a816620)" style="fill: none; stroke: #000000; stroke-width: 1.5"/>
    <path d="M 213.415313 194.396317 
L 213.415313 149.122036 
" clip-path="url(#p5b7a816620)" style="fill: none; stroke: #000000; stroke-width: 1.5"/>
    <path d="M 243.851676 191.696297 
L 243.851676 187.771676 
" clip-path="url(#p5b7a816620)" style="fill: none; stroke: #000000; stroke-width: 1.5"/>
    <path d="M 274.28804 260.320461 
L 274.28804 253.821821 
" clip-path="url(#p5b7a816620)" style="fill: none; stroke: #000000; stroke-width: 1.5"/>
    <path d="M 304.724403 193.650646 
L 304.724403 178.915074 
" clip-path="url(#p5b7a816620)" style="fill: none; stroke: #000000; stroke-width: 1.5"/>
    <path d="M 335.160767 148.985567 
L 335.160767 141.502883 
" clip-path="url(#p5b7a816620)" style="fill: none; stroke: #000000; stroke-width: 1.5"/>
    <path d="M 365.597131 291.426263 
L 365.597131 276.196138 
" clip-path="url(#p5b7a816620)" style="fill: none; stroke: #000000; stroke-width: 1.5"/>
   </g>
   <g id="line2d_1"/>
   <g id="matplotlib.axis_1">
    <g id="xtick_1">
     <g id="line2d_2"/>
     <g id="text_1">
      <text style="fill: #262626; font: 9.5px 'sans-serif'" transform="translate(28.225447 307.035325)">1,2-propanediol</text>
      <text style="fill: #262626; font: 9.5px 'sans-serif'" transform="translate(61.233494 317.083356)"/>
     </g>
    </g>
    <g id="xtick_2">
     <g id="line2d_3"/>
     <g id="text_2">
      <text style="fill: #262626; font: 9.5px 'sans-serif'" transform="translate(91.669858 307.007122)"/>
      <text style="fill: #262626; font: 9.5px 'sans-serif'" transform="translate(61.565249 317.055153)">2,3-butanediol</text>
     </g>
    </g>
    <g id="xtick_3">
     <g id="line2d_4"/>
     <g id="text_3">
      <text style="fill: #262626; font: 9.5px 'sans-serif'" transform="translate(108.12044 307.007122)">HMDA</text>
      <text style="fill: #262626; font: 9.5px 'sans-serif'" transform="translate(122.106222 317.055153)"/>
     </g>
    </g>
    <g id="xtick_4">
     <g id="line2d_5"/>
     <g id="text_4">
      <text style="fill: #262626; font: 9.5px 'sans-serif'" transform="translate(152.542585 307.007122)"/>
      <text style="fill: #262626; font: 9.5px 'sans-serif'" transform="translate(130.101804 317.055153)">Putrescine</text>
     </g>
    </g>
    <g id="xtick_5">
     <g id="line2d_6"/>
     <g id="text_5">
      <text style="fill: #262626; font: 9.5px 'sans-serif'" transform="translate(163.442347 307.007122)">Glutarate</text>
      <text style="fill: #262626; font: 9.5px 'sans-serif'" transform="translate(182.978949 317.055153)"/>
     </g>
    </g>
    <g id="xtick_6">
     <g id="line2d_7"/>
     <g id="text_6">
      <text style="fill: #262626; font: 9.5px 'sans-serif'" transform="translate(213.415313 307.007122)"/>
      <text style="fill: #262626; font: 9.5px 'sans-serif'" transform="translate(197.306133 317.055153)">Adipate</text>
     </g>
    </g>
    <g id="xtick_7">
     <g id="line2d_8"/>
     <g id="text_7">
      <text style="fill: #262626; font: 9.5px 'sans-serif'" transform="translate(220.878004 307.007122)">Hexanoate</text>
      <text style="fill: #262626; font: 9.5px 'sans-serif'" transform="translate(243.851676 317.055153)"/>
     </g>
    </g>
    <g id="xtick_8">
     <g id="line2d_9"/>
     <g id="text_8">
      <text style="fill: #262626; font: 9.5px 'sans-serif'" transform="translate(274.28804 307.007122)"/>
      <text style="fill: #262626; font: 9.5px 'sans-serif'" transform="translate(252.371985 317.055153)">Octanoate</text>
     </g>
    </g>
    <g id="xtick_9">
     <g id="line2d_10"/>
     <g id="text_9">
      <text style="fill: #262626; font: 9.5px 'sans-serif'" transform="translate(281.228974 307.007122)">Coumarate</text>
      <text style="fill: #262626; font: 9.5px 'sans-serif'" transform="translate(304.724403 317.055153)"/>
     </g>
    </g>
    <g id="xtick_10">
     <g id="line2d_11"/>
     <g id="text_10">
      <text style="fill: #262626; font: 9.5px 'sans-serif'" transform="translate(335.160767 307.007122)"/>
      <text style="fill: #262626; font: 9.5px 'sans-serif'" transform="translate(311.663111 317.055153)">Isobutyrate</text>
     </g>
    </g>
    <g id="xtick_11">
     <g id="line2d_12"/>
     <g id="text_11">
      <text style="fill: #262626; font: 9.5px 'sans-serif'" transform="translate(349.487951 307.007122)">Butanol</text>
      <text style="fill: #262626; font: 9.5px 'sans-serif'" transform="translate(365.597131 317.055153)"/>
     </g>
    </g>
   </g>
   <g id="matplotlib.axis_2">
    <g id="ytick_1">
     <g id="line2d_13">
      <path d="M 46.015313 296.7072 
L 380.815313 296.7072 
" clip-path="url(#p5b7a816620)" style="fill: none; stroke: #cccccc; stroke-width: 0.8; stroke-linecap: round"/>
     </g>
     <g id="line2d_14"/>
     <g id="text_12">
      <text style="fill: #262626; font: 10px 'sans-serif'; text-anchor: end" x="42.515313" y="300.286106" transform="rotate(-0, 42.515313, 300.286106)">0</text>
     </g>
    </g>
    <g id="ytick_2">
     <g id="line2d_15">
      <path d="M 46.015313 253.2192 
L 380.815313 253.2192 
" clip-path="url(#p5b7a816620)" style="fill: none; stroke: #cccccc; stroke-width: 0.8; stroke-linecap: round"/>
     </g>
     <g id="line2d_16"/>
     <g id="text_13">
      <text style="fill: #262626; font: 10px 'sans-serif'; text-anchor: end" x="42.515313" y="256.798106" transform="rotate(-0, 42.515313, 256.798106)">20</text>
     </g>
    </g>
    <g id="ytick_3">
     <g id="line2d_17">
      <path d="M 46.015313 209.7312 
L 380.815313 209.7312 
" clip-path="url(#p5b7a816620)" style="fill: none; stroke: #cccccc; stroke-width: 0.8; stroke-linecap: round"/>
     </g>
     <g id="line2d_18"/>
     <g id="text_14">
      <text style="fill: #262626; font: 10px 'sans-serif'; text-anchor: end" x="42.515313" y="213.310106" transform="rotate(-0, 42.515313, 213.310106)">40</text>
     </g>
    </g>
    <g id="ytick_4">
     <g id="line2d_19">
      <path d="M 46.015313 166.2432 
L 380.815313 166.2432 
" clip-path="url(#p5b7a816620)" style="fill: none; stroke: #cccccc; stroke-width: 0.8; stroke-linecap: round"/>
     </g>
     <g id="line2d_20"/>
     <g id="text_15">
      <text style="fill: #262626; font: 10px 'sans-serif'; text-anchor: end" x="42.515313" y="169.822106" transform="rotate(-0, 42.515313, 169.822106)">60</text>
     </g>
    </g>
    <g id="ytick_5">
     <g id="line2d_21">
      <path d="M 46.015313 122.7552 
L 380.815313 122.7552 
" clip-path="url(#p5b7a816620)" style="fill: none; stroke: #cccccc; stroke-width: 0.8; stroke-linecap: round"/>
     </g>
     <g id="line2d_22"/>
     <g id="text_16">
      <text style="fill: #262626; font: 10px 'sans-serif'; text-anchor: end" x="42.515313" y="126.334106" transform="rotate(-0, 42.515313, 126.334106)">80</text>
     </g>
    </g>
    <g id="ytick_6">
     <g id="line2d_23">
      <path d="M 46.015313 79.2672 
L 380.815313 79.2672 
" clip-path="url(#p5b7a816620)" style="fill: none; stroke: #cccccc; stroke-width: 0.8; stroke-linecap: round"/>
     </g>
     <g id="line2d_24"/>
     <g id="text_17">
      <text style="fill: #262626; font: 10px 'sans-serif'; text-anchor: end" x="42.515313" y="82.846106" transform="rotate(-0, 42.515313, 82.846106)">100</text>
     </g>
    </g>
    <g id="text_18">
     <text style="fill: #262626; font: 16px 'sans-serif'; text-anchor: middle" x="18.6525" y="187.9872" transform="rotate(-90, 18.6525, 187.9872)">% reconstructed tolerance</text>
    </g>
   </g>
   <g id="patch_3">
    <path d="M 53.624403 296.7072 
L 68.842585 296.7072 
L 68.842585 176.554327 
L 53.624403 176.554327 
z
" clip-path="url(#p5b7a816620)" style="fill: #9cd4ee"/>
   </g>
   <g id="patch_4">
    <path d="M 84.060767 296.7072 
L 99.278949 296.7072 
L 99.278949 149.561109 
L 84.060767 149.561109 
z
" clip-path="url(#p5b7a816620)" style="fill: #9cd4ee"/>
   </g>
   <g id="patch_5">
    <path d="M 114.497131 296.7072 
L 129.715313 296.7072 
L 129.715313 169.728516 
L 114.497131 169.728516 
z
" clip-path="url(#p5b7a816620)" style="fill: #9cd4ee"/>
   </g>
   <g id="patch_6">
    <path d="M 144.933494 296.7072 
L 160.151676 296.7072 
L 160.151676 86.406742 
L 144.933494 86.406742 
z
" clip-path="url(#p5b7a816620)" style="fill: #9cd4ee"/>
   </g>
   <g id="patch_7">
    <path d="M 175.369858 296.7072 
L 190.58804 296.7072 
L 190.58804 107.171438 
L 175.369858 107.171438 
z
" clip-path="url(#p5b7a816620)" style="fill: #9cd4ee"/>
   </g>
   <g id="patch_8">
    <path d="M 205.806222 296.7072 
L 221.024403 296.7072 
L 221.024403 171.759177 
L 205.806222 171.759177 
z
" clip-path="url(#p5b7a816620)" style="fill: #9cd4ee"/>
   </g>
   <g id="patch_9">
    <path d="M 236.242585 296.7072 
L 251.460767 296.7072 
L 251.460767 189.733986 
L 236.242585 189.733986 
z
" clip-path="url(#p5b7a816620)" style="fill: #9cd4ee"/>
   </g>
   <g id="patch_10">
    <path d="M 266.678949 296.7072 
L 281.897131 296.7072 
L 281.897131 257.071141 
L 266.678949 257.071141 
z
" clip-path="url(#p5b7a816620)" style="fill: #9cd4ee"/>
   </g>
   <g id="patch_11">
    <path d="M 297.115313 296.7072 
L 312.333494 296.7072 
L 312.333494 186.28286 
L 297.115313 186.28286 
z
" clip-path="url(#p5b7a816620)" style="fill: #9cd4ee"/>
   </g>
   <g id="patch_12">
    <path d="M 327.551676 296.7072 
L 342.769858 296.7072 
L 342.769858 145.244225 
L 327.551676 145.244225 
z
" clip-path="url(#p5b7a816620)" style="fill: #9cd4ee"/>
   </g>
   <g id="patch_13">
    <path d="M 357.98804 296.7072 
L 373.206222 296.7072 
L 373.206222 283.8112 
L 357.98804 283.8112 
z
" clip-path="url(#p5b7a816620)" style="fill: #9cd4ee"/>
   </g>
   <g id="patch_14">
    <path d="M 46.015313 296.7072 
L 46.015313 79.2672 
" style="fill: none; stroke: #262626; stroke-width: 1.25; stroke-linejoin: miter; stroke-linecap: square"/>
   </g>
   <g id="patch_15">
    <path d="M 380.815313 296.7072 
L 380.815313 79.2672 
" style="fill: none; stroke: #262626; stroke-width: 1.25; stroke-linejoin: miter; stroke-linecap: square"/>
   </g>
   <g id="patch_16">
    <path d="M 46.015313 296.7072 
L 380.815313 296.7072 
" style="fill: none; stroke: #262626; stroke-width: 1.25; stroke-linejoin: miter; stroke-linecap: square"/>
   </g>
   <g id="patch_17">
    <path d="M 46.015313 79.2672 
L 380.815313 79.2672 
" style="fill: none; stroke: #262626; stroke-width: 1.25; stroke-linejoin: miter; stroke-linecap: square"/>
   </g>
   <g id="text_19">
    <!-- $\Delta$sspA -->
    <g style="fill: #262626" transform="translate(62.50804 102.6112)rotate(-90)">
     <text>
      <tspan style="font: 8px 'DejaVu Sans'" x="0" y="-0.171875">Δ</tspan>
      <tspan style="font: 8px 'Arial'" x="5.472656 9.472656 13.472656 17.921875" y="-0.171875">sspA</tspan>
     </text>
    </g>
   </g>
   <g id="text_20">
    <!-- $\Delta$sspA -->
    <g style="fill: #262626" transform="translate(92.944403 104.7856)rotate(-90)">
     <text>
      <tspan style="font: 8px 'DejaVu Sans'" x="0" y="-0.171875">Δ</tspan>
      <tspan style="font: 8px 'Arial'" x="5.472656 9.472656 13.472656 17.921875" y="-0.171875">sspA</tspan>
     </text>
    </g>
   </g>
   <g id="text_21">
    <!-- $\Delta$proV $\Delta$ybeX rpsG1* mreB* -->
    <g style="fill: #262626" transform="translate(123.380767 107.12)rotate(-90)">
     <text>
      <tspan style="font: 8px 'DejaVu Sans'" x="0 24.59375" y="-0.171875">ΔΔ</tspan>
      <tspan style="font: 8px 'Arial'" x="5.472656 9.921875 12.585938 17.035156 22.371094 30.066406 34.066406 38.515625 42.964844 48.300781 50.523438 53.1875 57.636719 61.636719 67.859375 72.308594 75.421875 77.644531 84.308594 86.972656 91.421875 96.757812" y="-0.171875">proV ybeX rpsG1* mreB*</tspan>
     </text>
    </g>
   </g>
   <g id="text_22">
    <!-- $\Delta$proV rpsG1* mreB* -->
    <g style="fill: #262626" transform="translate(153.817131 109.1344)rotate(-90)">
     <text>
      <tspan style="font: 8px 'DejaVu Sans'" x="0" y="-0.171875">Δ</tspan>
      <tspan style="font: 8px 'Arial'" x="5.472656 9.921875 12.585938 17.035156 22.371094 24.59375 27.257812 31.707031 35.707031 41.929688 46.378906 49.492188 51.714844 58.378906 61.042969 65.492188 70.828125" y="-0.171875">proV rpsG1* mreB*</tspan>
     </text>
    </g>
   </g>
   <g id="text_23">
    <!-- $\Delta$kgtP $\Delta$proV $\Delta$ybjL -->
    <g style="fill: #262626" transform="translate(184.253494 111.4688)rotate(-90)">
     <text>
      <tspan style="font: 8px 'DejaVu Sans'" x="0 23.703125 48.296875" y="-0.171875">ΔΔΔ</tspan>
      <tspan style="font: 8px 'Arial'" x="5.472656 9.472656 13.921875 16.144531 21.480469 29.175781 33.625 36.289062 40.738281 46.074219 53.769531 57.769531 62.21875 63.996094" y="-0.171875">kgtP proV ybjL</tspan>
     </text>
    </g>
   </g>
   <g id="text_24">
    <!-- $\Delta$kgtP $\Delta$proV $\Delta$ybjL -->
    <g style="fill: #262626" transform="translate(214.689858 113.6432)rotate(-90)">
     <text>
      <tspan style="font: 8px 'DejaVu Sans'" x="0 23.703125 48.296875" y="-0.171875">ΔΔΔ</tspan>
      <tspan style="font: 8px 'Arial'" x="5.472656 9.472656 13.921875 16.144531 21.480469 29.175781 33.625 36.289062 40.738281 46.074219 53.769531 57.769531 62.21875 63.996094" y="-0.171875">kgtP proV ybjL</tspan>
     </text>
    </g>
   </g>
   <g id="text_25">
    <!-- $\Delta$ompR bioB* -->
    <g style="fill: #262626" transform="translate(245.126222 115.6576)rotate(-90)">
     <text>
      <tspan style="font: 8px 'DejaVu Sans'" x="0" y="-0.171875">Δ</tspan>
      <tspan style="font: 8px 'Arial'" x="5.472656 9.921875 16.585938 21.035156 26.8125 29.035156 33.484375 35.261719 39.710938 45.046875" y="-0.171875">ompR bioB*</tspan>
     </text>
    </g>
   </g>
   <g id="text_26">
    <!-- $\Delta$stfE -->
    <g style="fill: #262626" transform="translate(275.448835 117.822)rotate(-90)">
     <text>
      <tspan style="font: 8px 'DejaVu Sans'" x="0" y="-0.171875">Δ</tspan>
      <tspan style="font: 8px 'Arial'" x="5.472656 9.472656 11.695312 13.917969" y="-0.171875">stfE</tspan>
     </text>
    </g>
   </g>
   <g id="text_27">
    <!-- $\Delta$nadR $\Delta$mprA $\Delta$yhjK -->
    <g style="fill: #262626" transform="translate(305.998949 120.1664)rotate(-90)">
     <text>
      <tspan style="font: 8px 'DejaVu Sans'" x="0 26.820312 53.628906" y="-0.171875">ΔΔΔ</tspan>
      <tspan style="font: 8px 'Arial'" x="5.472656 9.921875 14.371094 18.820312 24.597656 32.292969 38.957031 43.40625 46.070312 51.40625 59.101562 63.101562 67.550781 69.328125" y="-0.171875">nadR mprA yhjK</tspan>
     </text>
    </g>
   </g>
   <g id="text_28">
    <!-- $\Delta$pykF $\Delta$rpoS -->
    <g style="fill: #262626" transform="translate(336.435313 122.3408)rotate(-90)">
     <text>
      <tspan style="font: 8px 'DejaVu Sans'" x="0 25.03125" y="-0.171875">ΔΔ</tspan>
      <tspan style="font: 8px 'Arial'" x="5.472656 9.921875 13.921875 17.921875 22.808594 30.503906 33.167969 37.617188 42.066406" y="-0.171875">pykF rpoS</tspan>
     </text>
    </g>
   </g>
   <g id="text_29">
    <!-- $\Delta$marC $\Delta$rob $\Delta$mmpA $\Delta$yobF -->
    <g style="fill: #262626" transform="translate(366.871676 124.5152)rotate(-90)">
     <text>
      <tspan style="font: 8px 'DejaVu Sans'" x="0 27.25 46.507812 77.316406" y="-0.171875">ΔΔΔΔ</tspan>
      <tspan style="font: 8px 'Arial'" x="5.472656 12.136719 16.585938 19.25 25.027344 32.722656 35.386719 39.835938 44.285156 51.980469 58.644531 65.308594 69.757812 75.09375 82.789062 86.789062 91.238281 95.6875" y="-0.171875">marC rob mmpA yobF</tspan>
     </text>
    </g>
   </g>
  </g>
 </g>
 <defs>
  <clipPath id="p5b7a816620">
   <rect x="46.015313" y="79.2672" width="334.8" height="217.44"/>
  </clipPath>
 </defs>
</svg>
