<?xml version="1.0" encoding="utf-8" standalone="no"?>
<!DOCTYPE svg PUBLIC "-//W3C//DTD SVG 1.1//EN"
  "http://www.w3.org/Graphics/SVG/1.1/DTD/svg11.dtd">
<svg xmlns:xlink="http://www.w3.org/1999/xlink" width="432pt" height="288pt" viewBox="0 0 432 288" xmlns="http://www.w3.org/2000/svg" version="1.1">
 <metadata>
  <rdf:RDF xmlns:dc="http://purl.org/dc/elements/1.1/" xmlns:cc="http://creativecommons.org/ns#" xmlns:rdf="http://www.w3.org/1999/02/22-rdf-syntax-ns#">
   <cc:Work>
    <dc:type rdf:resource="http://purl.org/dc/dcmitype/StillImage"/>
    <dc:date>2023-01-06T09:21:41.296513</dc:date>
    <dc:format>image/svg+xml</dc:format>
    <dc:creator>
     <cc:Agent>
      <dc:title>Matplotlib v3.5.1, https://matplotlib.org/</dc:title>
     </cc:Agent>
    </dc:creator>
   </cc:Work>
  </rdf:RDF>
 </metadata>
 <defs>
  <style type="text/css">*{stroke-linejoin: round; stroke-linecap: butt}</style>
 </defs>
 <g id="figure_1">
  <g id="patch_1">
   <path d="M 0 288 
L 432 288 
L 432 0 
L 0 0 
z
" style="fill: #ffffff"/>
  </g>
  <g id="axes_1">
   <g id="matplotlib.axis_1"/>
   <g id="matplotlib.axis_2">
    <g id="text_1">
     <text style="fill: #262626; font: 9.6px 'sans-serif'; text-anchor: middle" x="106.772" y="143.28" transform="rotate(-90, 106.772, 143.28)">function</text>
    </g>
   </g>
   <g id="patch_2">
    <path d="M 308.376 143.28 
C 308.376 128.82547 304.772705 114.596381 297.89311 101.884001 
C 291.013514 89.171621 281.072213 78.372489 268.971366 70.46661 
C 256.870518 62.560731 242.987587 57.794714 228.582426 56.601068 
C 214.177266 55.407421 199.699218 57.823379 186.462145 63.629696 
L 221.4 143.28 
L 308.376 143.28 
z
" style="fill: #1f77b4; stroke: #ffffff; stroke-width: 0.8; stroke-linejoin: miter"/>
   </g>
   <g id="patch_3">
    <path d="M 186.462145 63.629696 
C 173.225072 69.436014 161.641877 78.451574 152.76372 89.858228 
C 143.885563 101.264883 137.98938 114.706822 135.610241 128.964211 
C 133.231102 143.221599 134.443219 157.849705 139.136596 171.52105 
C 143.829972 185.192394 151.858206 197.480525 162.492748 207.270314 
L 221.4 143.28 
L 186.462145 63.629696 
z
" style="fill: #ff7f0e; stroke: #ffffff; stroke-width: 0.8; stroke-linejoin: miter"/>
   </g>
   <g id="patch_4">
    <path d="M 162.492748 207.270314 
C 171.341187 215.415878 181.783726 221.638283 193.158927 225.543396 
C 204.534128 229.44851 216.596639 230.952102 228.58241 229.958934 
C 240.568182 228.965766 252.218693 225.49726 262.795992 219.773114 
C 273.373291 214.048967 282.649235 206.192645 290.03628 196.701772 
L 221.4 143.28 
L 162.492748 207.270314 
z
" style="fill: #2ca02c; stroke: #ffffff; stroke-width: 0.8; stroke-linejoin: miter"/>
   </g>
   <g id="patch_5">
    <path d="M 290.03628 196.701772 
C 295.938416 189.118708 300.543272 180.609682 303.663398 171.521069 
C 306.783523 162.432456 308.375999 152.889278 308.376 143.280008 
L 221.4 143.28 
L 290.03628 196.701772 
z
" style="fill: #d62728; stroke: #ffffff; stroke-width: 0.8; stroke-linejoin: miter"/>
   </g>
   <g id="text_2">
    <text style="fill: #262626; font: 8.8px 'sans-serif'; text-anchor: start" x="273.728502" y="65.460209" transform="rotate(-0, 273.728502, 65.460209)">Tc/Tl machineries</text>
   </g>
   <g id="text_3">
    <text style="fill: #262626; font: 9.6px 'sans-serif'; text-anchor: middle" x="249.94282" y="102.073716" transform="rotate(-0, 249.94282, 102.073716)">31.6%</text>
   </g>
   <g id="text_4">
    <text style="fill: #262626; font: 8.8px 'sans-serif'; text-anchor: end" x="127.031265" y="129.807569" transform="rotate(-0, 127.031265, 129.807569)">Transport</text>
   </g>
   <g id="text_5">
    <text style="fill: #262626; font: 9.6px 'sans-serif'; text-anchor: middle" x="169.926145" y="137.172276" transform="rotate(-0, 169.926145, 137.172276)">31.6%</text>
   </g>
   <g id="text_6">
    <text style="fill: #262626; font: 8.8px 'sans-serif'; text-anchor: start" x="229.300651" y="240.903827" transform="rotate(-0, 229.300651, 240.903827)">Stress signaling</text>
   </g>
   <g id="text_7">
    <text style="fill: #262626; font: 9.6px 'sans-serif'; text-anchor: middle" x="225.709446" y="197.76911" transform="rotate(-0, 225.709446, 197.76911)">26.3%</text>
   </g>
   <g id="text_8">
    <text style="fill: #262626; font: 8.8px 'sans-serif'; text-anchor: start" x="311.889737" y="176.620113" transform="rotate(-0, 311.889737, 176.620113)">Membrane components</text>
   </g>
   <g id="text_9">
    <text style="fill: #262626; font: 9.6px 'sans-serif'; text-anchor: middle" x="270.758039" y="162.706391" transform="rotate(-0, 270.758039, 162.706391)">10.5%</text>
   </g>
  </g>
 </g>
</svg>
