<?xml version="1.0" encoding="utf-8" standalone="no"?>
<!DOCTYPE svg PUBLIC "-//W3C//DTD SVG 1.1//EN"
  "http://www.w3.org/Graphics/SVG/1.1/DTD/svg11.dtd">
<svg xmlns:xlink="http://www.w3.org/1999/xlink" width="432pt" height="288pt" viewBox="0 0 432 288" xmlns="http://www.w3.org/2000/svg" version="1.1">
 <metadata>
  <rdf:RDF xmlns:dc="http://purl.org/dc/elements/1.1/" xmlns:cc="http://creativecommons.org/ns#" xmlns:rdf="http://www.w3.org/1999/02/22-rdf-syntax-ns#">
   <cc:Work>
    <dc:type rdf:resource="http://purl.org/dc/dcmitype/StillImage"/>
    <dc:date>2022-08-25T14:57:20.608088</dc:date>
    <dc:format>image/svg+xml</dc:format>
    <dc:creator>
     <cc:Agent>
      <dc:title>Matplotlib v3.5.1, https://matplotlib.org/</dc:title>
     </cc:Agent>
    </dc:creator>
   </cc:Work>
  </rdf:RDF>
 </metadata>
 <defs>
  <style type="text/css">*{stroke-linejoin: round; stroke-linecap: butt}</style>
 </defs>
 <g id="figure_1">
  <g id="patch_1">
   <path d="M 0 288 
L 432 288 
L 432 0 
L 0 0 
z
" style="fill: #ffffff"/>
  </g>
  <g id="axes_1">
   <g id="matplotlib.axis_1"/>
   <g id="matplotlib.axis_2">
    <g id="text_1">
     <text style="fill: #262626; font: 9.6px 'sans-serif'; text-anchor: middle" x="106.772" y="143.28" transform="rotate(-90, 106.772, 143.28)">function</text>
    </g>
   </g>
   <g id="patch_2">
    <path d="M 308.376 143.28 
C 308.376 128.013659 304.356595 113.013038 296.723425 99.791999 
C 289.090254 86.57096 278.109037 75.589743 264.887998 67.956573 
C 251.666959 60.323403 236.666337 56.303999 221.399996 56.304 
C 206.133655 56.304001 191.133034 60.323406 177.911995 67.956577 
L 221.4 143.28 
L 308.376 143.28 
z
" style="fill: #1f77b4; stroke: #ffffff; stroke-width: 0.8; stroke-linejoin: miter"/>
   </g>
   <g id="patch_3">
    <path d="M 177.911995 67.956577 
C 164.690957 75.589748 153.70974 86.570966 146.076571 99.792006 
C 138.443402 113.013045 134.423999 128.013667 134.424 143.280008 
L 221.4 143.28 
L 177.911995 67.956577 
z
" style="fill: #ff7f0e; stroke: #ffffff; stroke-width: 0.8; stroke-linejoin: miter"/>
   </g>
   <g id="patch_4">
    <path d="M 134.424 143.280008 
C 134.424001 158.546349 138.443407 173.54697 146.076579 186.768008 
C 153.709751 199.989046 164.69097 210.970262 177.912009 218.603431 
L 221.4 143.28 
L 134.424 143.280008 
z
" style="fill: #2ca02c; stroke: #ffffff; stroke-width: 0.8; stroke-linejoin: miter"/>
   </g>
   <g id="patch_5">
    <path d="M 177.912009 218.603431 
C 191.133049 226.2366 206.133672 230.256002 221.400012 230.256 
C 236.666353 230.255998 251.666974 226.236591 264.888012 218.603419 
L 221.4 143.28 
L 177.912009 218.603431 
z
" style="fill: #d62728; stroke: #ffffff; stroke-width: 0.8; stroke-linejoin: miter"/>
   </g>
   <g id="patch_6">
    <path d="M 264.888012 218.603419 
C 278.109049 210.970246 289.090265 199.989027 296.723433 186.767987 
C 304.356601 173.546947 308.376003 158.546324 308.376 143.279984 
L 221.4 143.28 
L 264.888012 218.603419 
z
" style="fill: #9467bd; stroke: #ffffff; stroke-width: 0.8; stroke-linejoin: miter"/>
   </g>
   <g id="text_2">
    <text style="fill: #262626; font: 8.8px 'sans-serif'; text-anchor: start" x="269.236797" y="62.699168" transform="rotate(-0, 269.236797, 62.699168)">Metabolism</text>
   </g>
   <g id="text_3">
    <text style="fill: #262626; font: 9.6px 'sans-serif'; text-anchor: middle" x="247.492799" y="100.567694" transform="rotate(-0, 247.492799, 100.567694)">33.3%</text>
   </g>
   <g id="text_4">
    <text style="fill: #262626; font: 8.8px 'sans-serif'; text-anchor: end" x="138.544228" y="97.720206" transform="rotate(-0, 138.544228, 97.720206)">Stress signaling</text>
   </g>
   <g id="text_5">
    <text style="fill: #262626; font: 9.6px 'sans-serif'; text-anchor: middle" x="176.205943" y="119.668954" transform="rotate(-0, 176.205943, 119.668954)">16.7%</text>
   </g>
   <g id="text_6">
    <text style="fill: #262626; font: 8.8px 'sans-serif'; text-anchor: end" x="138.544237" y="193.391747" transform="rotate(-0, 138.544237, 193.391747)">Transport</text>
   </g>
   <g id="text_7">
    <text style="fill: #262626; font: 9.6px 'sans-serif'; text-anchor: middle" x="176.205948" y="171.854555" transform="rotate(-0, 176.205948, 171.854555)">16.7%</text>
   </g>
   <g id="text_8">
    <text style="fill: #262626; font: 8.8px 'sans-serif'; text-anchor: start" x="221.400013" y="241.228537" transform="rotate(-0, 221.400013, 241.228537)">Tc/Tl machineries</text>
   </g>
   <g id="text_9">
    <text style="fill: #262626; font: 9.6px 'sans-serif'; text-anchor: middle" x="221.400007" y="197.94735" transform="rotate(-0, 221.400007, 197.94735)">16.7%</text>
   </g>
   <g id="text_10">
    <text style="fill: #262626; font: 8.8px 'sans-serif'; text-anchor: start" x="304.255776" y="193.391723" transform="rotate(-0, 304.255776, 193.391723)">Membrane components</text>
   </g>
   <g id="text_11">
    <text style="fill: #262626; font: 9.6px 'sans-serif'; text-anchor: middle" x="266.59406" y="171.854542" transform="rotate(-0, 266.59406, 171.854542)">16.7%</text>
   </g>
  </g>
 </g>
</svg>
