<?xml version="1.0" encoding="utf-8" standalone="no"?>
<!DOCTYPE svg PUBLIC "-//W3C//DTD SVG 1.1//EN"
  "http://www.w3.org/Graphics/SVG/1.1/DTD/svg11.dtd">
<svg xmlns:xlink="http://www.w3.org/1999/xlink" width="432pt" height="288pt" viewBox="0 0 432 288" xmlns="http://www.w3.org/2000/svg" version="1.1">
 <metadata>
  <rdf:RDF xmlns:dc="http://purl.org/dc/elements/1.1/" xmlns:cc="http://creativecommons.org/ns#" xmlns:rdf="http://www.w3.org/1999/02/22-rdf-syntax-ns#">
   <cc:Work>
    <dc:type rdf:resource="http://purl.org/dc/dcmitype/StillImage"/>
    <dc:date>2022-07-12T11:39:26.891186</dc:date>
    <dc:format>image/svg+xml</dc:format>
    <dc:creator>
     <cc:Agent>
      <dc:title>Matplotlib v3.5.1, https://matplotlib.org/</dc:title>
     </cc:Agent>
    </dc:creator>
   </cc:Work>
  </rdf:RDF>
 </metadata>
 <defs>
  <style type="text/css">*{stroke-linejoin: round; stroke-linecap: butt}</style>
 </defs>
 <g id="figure_1">
  <g id="patch_1">
   <path d="M 0 288 
L 432 288 
L 432 0 
L 0 0 
z
" style="fill: #ffffff"/>
  </g>
  <g id="axes_1">
   <g id="matplotlib.axis_1"/>
   <g id="matplotlib.axis_2">
    <g id="text_1">
     <text style="fill: #262626; font: 9.6px 'sans-serif'; text-anchor: middle" x="106.772" y="143.28" transform="rotate(-90, 106.772, 143.28)">function</text>
    </g>
   </g>
   <g id="patch_2">
    <path d="M 308.376 143.28 
C 308.376 129.354185 305.031486 115.62991 298.624706 103.265385 
C 292.217925 90.90086 282.934322 80.253972 271.557351 72.223229 
C 260.18038 64.192485 247.039344 59.010332 233.243236 57.1141 
C 219.447127 55.217868 205.395269 56.662441 192.273518 61.325912 
L 221.4 143.28 
L 308.376 143.28 
z
" style="fill: #1f77b4; stroke: #ffffff; stroke-width: 0.8; stroke-linejoin: miter"/>
   </g>
   <g id="patch_3">
    <path d="M 192.273518 61.325912 
C 181.040315 65.318192 170.746955 71.577722 162.034263 79.714806 
C 153.321572 87.85189 146.374189 97.694088 141.624633 108.62866 
C 136.875077 119.563231 134.424001 131.358451 134.424 143.279992 
C 134.423999 155.201532 136.875073 166.996753 141.624626 177.931325 
L 221.4 143.28 
L 192.273518 61.325912 
z
" style="fill: #ff7f0e; stroke: #ffffff; stroke-width: 0.8; stroke-linejoin: miter"/>
   </g>
   <g id="patch_4">
    <path d="M 141.624626 177.931325 
C 149.588882 196.266886 163.63606 211.307744 181.385374 220.5047 
C 199.134688 229.701656 219.523347 232.504015 239.095778 228.43682 
L 221.4 143.28 
L 141.624626 177.931325 
z
" style="fill: #2ca02c; stroke: #ffffff; stroke-width: 0.8; stroke-linejoin: miter"/>
   </g>
   <g id="patch_5">
    <path d="M 239.095778 228.43682 
C 250.767969 226.011313 261.817797 221.211697 271.557337 214.336781 
C 281.296878 207.461864 289.519733 198.65734 295.713975 188.471345 
L 221.4 143.28 
L 239.095778 228.43682 
z
" style="fill: #d62728; stroke: #ffffff; stroke-width: 0.8; stroke-linejoin: miter"/>
   </g>
   <g id="patch_6">
    <path d="M 295.713975 188.471345 
C 297.772352 185.08649 299.597065 181.564955 301.175365 177.931345 
C 302.753665 174.297735 304.081867 170.560534 305.150691 166.745856 
L 221.4 143.28 
L 295.713975 188.471345 
z
" style="fill: #9467bd; stroke: #ffffff; stroke-width: 0.8; stroke-linejoin: miter"/>
   </g>
   <g id="patch_7">
    <path d="M 305.150691 166.745856 
C 306.219514 162.931178 307.026463 159.047929 307.565899 155.123243 
C 308.105335 151.198557 308.375999 147.241597 308.376 143.280012 
L 221.4 143.28 
L 305.150691 166.745856 
z
" style="fill: #8c564b; stroke: #ffffff; stroke-width: 0.8; stroke-linejoin: miter"/>
   </g>
   <g id="text_2">
    <text style="fill: #262626; font: 8.8px 'sans-serif'; text-anchor: start" x="276.573086" y="67.392489" transform="rotate(-0, 276.573086, 67.392489)">Transport</text>
   </g>
   <g id="text_3">
    <text style="fill: #262626; font: 9.6px 'sans-serif'; text-anchor: middle" x="251.49441" y="103.127687" transform="rotate(-0, 251.49441, 103.127687)">30.4%</text>
   </g>
   <g id="text_4">
    <text style="fill: #262626; font: 8.8px 'sans-serif'; text-anchor: end" x="133.647096" y="107.438463" transform="rotate(-0, 133.647096, 107.438463)">TX/TL machineries</text>
   </g>
   <g id="text_5">
    <text style="fill: #262626; font: 9.6px 'sans-serif'; text-anchor: middle" x="173.53478" y="124.970946" transform="rotate(-0, 173.53478, 124.970946)">26.1%</text>
   </g>
   <g id="text_6">
    <text style="fill: #262626; font: 8.8px 'sans-serif'; text-anchor: end" x="177.383911" y="230.50417" transform="rotate(-0, 177.383911, 230.50417)">Stress signaling</text>
   </g>
   <g id="text_7">
    <text style="fill: #262626; font: 9.6px 'sans-serif'; text-anchor: middle" x="197.391224" y="192.09657" transform="rotate(-0, 197.391224, 192.09657)">21.7%</text>
   </g>
   <g id="text_8">
    <text style="fill: #262626; font: 8.8px 'sans-serif'; text-anchor: start" x="276.573071" y="223.717396" transform="rotate(-0, 276.573071, 223.717396)">Membrane components</text>
   </g>
   <g id="text_9">
    <text style="fill: #262626; font: 9.6px 'sans-serif'; text-anchor: middle" x="251.494402" y="188.395818" transform="rotate(-0, 251.494402, 188.395818)">13.0%</text>
   </g>
   <g id="text_10">
    <text style="fill: #262626; font: 8.8px 'sans-serif'; text-anchor: start" x="309.152902" y="183.671417" transform="rotate(-0, 309.152902, 183.671417)">Metabolism</text>
   </g>
   <g id="text_11">
    <text style="fill: #262626; font: 9.6px 'sans-serif'; text-anchor: middle" x="269.265219" y="166.552557" transform="rotate(-0, 269.265219, 166.552557)">4.3%</text>
   </g>
   <g id="text_12">
    <text style="fill: #262626; font: 8.8px 'sans-serif'; text-anchor: start" x="316.182489" y="158.582505" transform="rotate(-0, 316.182489, 158.582505)">No information</text>
   </g>
   <g id="text_13">
    <text style="fill: #262626; font: 9.6px 'sans-serif'; text-anchor: middle" x="273.099539" y="152.867696" transform="rotate(-0, 273.099539, 152.867696)">4.3%</text>
   </g>
  </g>
 </g>
</svg>
