<?xml version="1.0" encoding="utf-8" standalone="no"?>
<!DOCTYPE svg PUBLIC "-//W3C//DTD SVG 1.1//EN"
  "http://www.w3.org/Graphics/SVG/1.1/DTD/svg11.dtd">
<svg xmlns:xlink="http://www.w3.org/1999/xlink" width="432pt" height="288pt" viewBox="0 0 432 288" xmlns="http://www.w3.org/2000/svg" version="1.1">
 <metadata>
  <rdf:RDF xmlns:dc="http://purl.org/dc/elements/1.1/" xmlns:cc="http://creativecommons.org/ns#" xmlns:rdf="http://www.w3.org/1999/02/22-rdf-syntax-ns#">
   <cc:Work>
    <dc:type rdf:resource="http://purl.org/dc/dcmitype/StillImage"/>
    <dc:date>2022-07-18T22:32:08.580269</dc:date>
    <dc:format>image/svg+xml</dc:format>
    <dc:creator>
     <cc:Agent>
      <dc:title>Matplotlib v3.5.1, https://matplotlib.org/</dc:title>
     </cc:Agent>
    </dc:creator>
   </cc:Work>
  </rdf:RDF>
 </metadata>
 <defs>
  <style type="text/css">*{stroke-linejoin: round; stroke-linecap: butt}</style>
 </defs>
 <g id="figure_1">
  <g id="patch_1">
   <path d="M 0 288 
L 432 288 
L 432 0 
L 0 0 
z
" style="fill: #ffffff"/>
  </g>
  <g id="axes_1">
   <g id="matplotlib.axis_1"/>
   <g id="matplotlib.axis_2">
    <g id="text_1">
     <text style="fill: #262626; font: 9.6px 'sans-serif'; text-anchor: middle" x="106.772" y="143.28" transform="rotate(-90, 106.772, 143.28)">function</text>
    </g>
   </g>
   <g id="patch_2">
    <path d="M 308.376 143.28 
C 308.376 128.013659 304.356595 113.013038 296.723425 99.791999 
C 289.090254 86.57096 278.109037 75.589743 264.887998 67.956573 
C 251.666959 60.323403 236.666337 56.303999 221.399996 56.304 
C 206.133655 56.304001 191.133034 60.323406 177.911995 67.956577 
L 221.4 143.28 
L 308.376 143.28 
z
" style="fill: #1f77b4; stroke: #ffffff; stroke-width: 0.8; stroke-linejoin: miter"/>
   </g>
   <g id="patch_3">
    <path d="M 177.911995 67.956577 
C 157.942643 79.48589 143.355643 98.496041 137.387634 120.76896 
C 131.419625 143.041879 134.547265 166.798653 146.076577 186.768005 
L 221.4 143.28 
L 177.911995 67.956577 
z
" style="fill: #ff7f0e; stroke: #ffffff; stroke-width: 0.8; stroke-linejoin: miter"/>
   </g>
   <g id="patch_4">
    <path d="M 146.076577 186.768005 
C 153.709748 199.989043 164.690966 210.97026 177.912006 218.603429 
C 191.133045 226.236598 206.133667 230.256001 221.400008 230.256 
L 221.4 143.28 
L 146.076577 186.768005 
z
" style="fill: #2ca02c; stroke: #ffffff; stroke-width: 0.8; stroke-linejoin: miter"/>
   </g>
   <g id="patch_5">
    <path d="M 221.400008 230.256 
C 236.666349 230.255999 251.66697 226.236593 264.888008 218.603421 
C 278.109046 210.970249 289.090262 199.98903 296.723431 186.767991 
L 221.4 143.28 
L 221.400008 230.256 
z
" style="fill: #d62728; stroke: #ffffff; stroke-width: 0.8; stroke-linejoin: miter"/>
   </g>
   <g id="patch_6">
    <path d="M 296.723431 186.767991 
C 300.523885 180.185409 303.445108 173.132949 305.412368 165.791034 
C 307.379627 158.449119 308.376001 150.880897 308.376 143.279988 
L 221.4 143.28 
L 296.723431 186.767991 
z
" style="fill: #9467bd; stroke: #ffffff; stroke-width: 0.8; stroke-linejoin: miter"/>
   </g>
   <g id="text_2">
    <text style="fill: #262626; font: 8.8px 'sans-serif'; text-anchor: start" x="269.236797" y="62.699168" transform="rotate(-0, 269.236797, 62.699168)">Metabolism</text>
   </g>
   <g id="text_3">
    <text style="fill: #262626; font: 9.6px 'sans-serif'; text-anchor: middle" x="247.492799" y="100.567694" transform="rotate(-0, 247.492799, 100.567694)">33.3%</text>
   </g>
   <g id="text_4">
    <text style="fill: #262626; font: 8.8px 'sans-serif'; text-anchor: end" x="128.986397" y="120.794856" transform="rotate(-0, 128.986397, 120.794856)">Stress signaling</text>
   </g>
   <g id="text_5">
    <text style="fill: #262626; font: 9.6px 'sans-serif'; text-anchor: middle" x="170.99258" y="132.255126" transform="rotate(-0, 170.99258, 132.255126)">25.0%</text>
   </g>
   <g id="text_6">
    <text style="fill: #262626; font: 8.8px 'sans-serif'; text-anchor: end" x="173.563206" y="228.410709" transform="rotate(-0, 173.563206, 228.410709)">Transport</text>
   </g>
   <g id="text_7">
    <text style="fill: #262626; font: 9.6px 'sans-serif'; text-anchor: middle" x="195.307204" y="190.955807" transform="rotate(-0, 195.307204, 190.955807)">16.7%</text>
   </g>
   <g id="text_8">
    <text style="fill: #262626; font: 8.8px 'sans-serif'; text-anchor: start" x="269.236809" y="228.4107" transform="rotate(-0, 269.236809, 228.4107)">TX/TL machineries</text>
   </g>
   <g id="text_9">
    <text style="fill: #262626; font: 9.6px 'sans-serif'; text-anchor: middle" x="247.492805" y="190.955802" transform="rotate(-0, 247.492805, 190.955802)">16.7%</text>
   </g>
   <g id="text_10">
    <text style="fill: #262626; font: 8.8px 'sans-serif'; text-anchor: start" x="313.813604" y="170.317075" transform="rotate(-0, 313.813604, 170.317075)">Membrane components</text>
   </g>
   <g id="text_11">
    <text style="fill: #262626; font: 9.6px 'sans-serif'; text-anchor: middle" x="271.807421" y="159.26837" transform="rotate(-0, 271.807421, 159.26837)">8.3%</text>
   </g>
  </g>
 </g>
</svg>
