<?xml version="1.0" encoding="utf-8" standalone="no"?>
<!DOCTYPE svg PUBLIC "-//W3C//DTD SVG 1.1//EN"
  "http://www.w3.org/Graphics/SVG/1.1/DTD/svg11.dtd">
<svg xmlns:xlink="http://www.w3.org/1999/xlink" width="432pt" height="288pt" viewBox="0 0 432 288" xmlns="http://www.w3.org/2000/svg" version="1.1">
 <metadata>
  <rdf:RDF xmlns:dc="http://purl.org/dc/elements/1.1/" xmlns:cc="http://creativecommons.org/ns#" xmlns:rdf="http://www.w3.org/1999/02/22-rdf-syntax-ns#">
   <cc:Work>
    <dc:type rdf:resource="http://purl.org/dc/dcmitype/StillImage"/>
    <dc:date>2022-07-12T11:39:30.580015</dc:date>
    <dc:format>image/svg+xml</dc:format>
    <dc:creator>
     <cc:Agent>
      <dc:title>Matplotlib v3.5.1, https://matplotlib.org/</dc:title>
     </cc:Agent>
    </dc:creator>
   </cc:Work>
  </rdf:RDF>
 </metadata>
 <defs>
  <style type="text/css">*{stroke-linejoin: round; stroke-linecap: butt}</style>
 </defs>
 <g id="figure_1">
  <g id="patch_1">
   <path d="M 0 288 
L 432 288 
L 432 0 
L 0 0 
z
" style="fill: #ffffff"/>
  </g>
  <g id="axes_1">
   <g id="matplotlib.axis_1"/>
   <g id="matplotlib.axis_2">
    <g id="text_1">
     <text style="fill: #262626; font: 9.6px 'sans-serif'; text-anchor: middle" x="106.772" y="143.28" transform="rotate(-90, 106.772, 143.28)">function</text>
    </g>
   </g>
   <g id="patch_2">
    <path d="M 308.376 143.28 
C 308.376 125.632334 303.004861 108.395744 292.979844 93.872 
C 282.954827 79.348256 268.742967 68.213975 252.242113 61.956027 
C 235.741258 55.698078 217.720135 54.608002 200.585278 58.831365 
C 183.450421 63.054729 168.000093 72.394778 156.297527 85.604246 
L 221.4 143.28 
L 308.376 143.28 
z
" style="fill: #1f77b4; stroke: #ffffff; stroke-width: 0.8; stroke-linejoin: miter"/>
   </g>
   <g id="patch_3">
    <path d="M 156.297527 85.604246 
C 146.960557 96.143507 140.321 108.794128 136.951363 122.465286 
C 133.581726 136.136444 133.581727 150.423569 136.951366 164.094726 
L 221.4 143.28 
L 156.297527 85.604246 
z
" style="fill: #ff7f0e; stroke: #ffffff; stroke-width: 0.8; stroke-linejoin: miter"/>
   </g>
   <g id="patch_4">
    <path d="M 136.951366 164.094726 
C 140.321005 177.765883 146.960564 190.416504 156.297535 200.955763 
C 165.634505 211.495022 177.39258 219.611033 190.557895 224.603976 
L 221.4 143.28 
L 136.951366 164.094726 
z
" style="fill: #2ca02c; stroke: #ffffff; stroke-width: 0.8; stroke-linejoin: miter"/>
   </g>
   <g id="patch_5">
    <path d="M 190.557895 224.603976 
C 203.72321 229.59692 217.906166 231.319041 231.88381 229.621846 
C 245.861454 227.92465 259.220147 222.858364 270.80801 214.859837 
L 221.4 143.28 
L 190.557895 224.603976 
z
" style="fill: #d62728; stroke: #ffffff; stroke-width: 0.8; stroke-linejoin: miter"/>
   </g>
   <g id="patch_6">
    <path d="M 270.80801 214.859837 
C 282.395873 206.86131 291.869988 196.167242 298.41343 183.69975 
C 304.956872 171.232257 308.376003 157.360289 308.376 143.279984 
L 221.4 143.28 
L 270.80801 214.859837 
z
" style="fill: #9467bd; stroke: #ffffff; stroke-width: 0.8; stroke-linejoin: miter"/>
   </g>
   <g id="text_2">
    <text style="fill: #262626; font: 8.8px 'sans-serif'; text-anchor: start" x="255.326324" y="56.098567" transform="rotate(-0, 255.326324, 56.098567)">Metabolism</text>
   </g>
   <g id="text_3">
    <text style="fill: #262626; font: 9.6px 'sans-serif'; text-anchor: middle" x="239.905268" y="96.967366" transform="rotate(-0, 239.905268, 96.967366)">38.5%</text>
   </g>
   <g id="text_4">
    <text style="fill: #262626; font: 8.8px 'sans-serif'; text-anchor: end" x="128.5065" y="122.660815" transform="rotate(-0, 128.5065, 122.660815)">Stress signaling</text>
   </g>
   <g id="text_5">
    <text style="fill: #262626; font: 9.6px 'sans-serif'; text-anchor: middle" x="170.730818" y="133.272922" transform="rotate(-0, 170.730818, 133.272922)">15.4%</text>
   </g>
   <g id="text_6">
    <text style="fill: #262626; font: 8.8px 'sans-serif'; text-anchor: end" x="149.787288" y="208.998276" transform="rotate(-0, 149.787288, 208.998276)">Transport</text>
   </g>
   <g id="text_7">
    <text style="fill: #262626; font: 9.6px 'sans-serif'; text-anchor: middle" x="182.338521" y="180.367208" transform="rotate(-0, 182.338521, 180.367208)">15.4%</text>
   </g>
   <g id="text_8">
    <text style="fill: #262626; font: 8.8px 'sans-serif'; text-anchor: start" x="232.932191" y="240.530968" transform="rotate(-0, 232.932191, 240.530968)">TX/TL machineries</text>
   </g>
   <g id="text_9">
    <text style="fill: #262626; font: 9.6px 'sans-serif'; text-anchor: middle" x="227.690286" y="197.566857" transform="rotate(-0, 227.690286, 197.566857)">15.4%</text>
   </g>
   <g id="text_10">
    <text style="fill: #262626; font: 8.8px 'sans-serif'; text-anchor: start" x="306.114773" y="190.016662" transform="rotate(-0, 306.114773, 190.016662)">Membrane components</text>
   </g>
   <g id="text_11">
    <text style="fill: #262626; font: 9.6px 'sans-serif'; text-anchor: middle" x="267.608058" y="170.0136" transform="rotate(-0, 267.608058, 170.0136)">15.4%</text>
   </g>
  </g>
 </g>
</svg>
