<?xml version="1.0" encoding="utf-8" standalone="no"?>
<!DOCTYPE svg PUBLIC "-//W3C//DTD SVG 1.1//EN"
  "http://www.w3.org/Graphics/SVG/1.1/DTD/svg11.dtd">
<svg xmlns:xlink="http://www.w3.org/1999/xlink" width="432pt" height="288pt" viewBox="0 0 432 288" xmlns="http://www.w3.org/2000/svg" version="1.1">
 <metadata>
  <rdf:RDF xmlns:dc="http://purl.org/dc/elements/1.1/" xmlns:cc="http://creativecommons.org/ns#" xmlns:rdf="http://www.w3.org/1999/02/22-rdf-syntax-ns#">
   <cc:Work>
    <dc:type rdf:resource="http://purl.org/dc/dcmitype/StillImage"/>
    <dc:date>2022-08-10T14:14:19.705696</dc:date>
    <dc:format>image/svg+xml</dc:format>
    <dc:creator>
     <cc:Agent>
      <dc:title>Matplotlib v3.5.1, https://matplotlib.org/</dc:title>
     </cc:Agent>
    </dc:creator>
   </cc:Work>
  </rdf:RDF>
 </metadata>
 <defs>
  <style type="text/css">*{stroke-linejoin: round; stroke-linecap: butt}</style>
 </defs>
 <g id="figure_1">
  <g id="patch_1">
   <path d="M 0 288 
L 432 288 
L 432 0 
L 0 0 
z
" style="fill: #ffffff"/>
  </g>
  <g id="axes_1">
   <g id="matplotlib.axis_1"/>
   <g id="matplotlib.axis_2">
    <g id="text_1">
     <text style="fill: #262626; font: 9.6px 'sans-serif'; text-anchor: middle" x="106.772" y="143.28" transform="rotate(-90, 106.772, 143.28)">function</text>
    </g>
   </g>
   <g id="patch_2">
    <path d="M 308.376 143.28 
C 308.376 131.487521 305.977708 119.817297 301.327275 108.980506 
C 296.676842 98.143715 289.870692 88.365052 281.323588 80.240424 
C 272.776485 72.115796 262.665647 65.813662 251.607225 61.718072 
C 240.548802 57.622481 228.772086 55.818354 216.994742 56.415633 
L 221.4 143.28 
L 308.376 143.28 
z
" style="fill: #1f77b4; stroke: #ffffff; stroke-width: 0.8; stroke-linejoin: miter"/>
   </g>
   <g id="patch_3">
    <path d="M 216.994742 56.415633 
C 205.217399 57.012912 193.683624 59.999212 183.096283 65.19255 
C 172.508942 70.385888 163.087555 77.678583 155.406258 86.626222 
C 147.724961 95.573861 141.943021 105.990919 138.412786 117.242586 
C 134.882552 128.494253 133.677221 140.347232 134.870245 152.079208 
L 221.4 143.28 
L 216.994742 56.415633 
z
" style="fill: #ff7f0e; stroke: #ffffff; stroke-width: 0.8; stroke-linejoin: miter"/>
   </g>
   <g id="patch_4">
    <path d="M 134.870245 152.079208 
C 136.972499 172.752378 146.415369 192.002984 161.476406 206.31957 
C 176.537442 220.636157 196.241612 229.091885 216.994726 230.144366 
L 221.4 143.28 
L 134.870245 152.079208 
z
" style="fill: #2ca02c; stroke: #ffffff; stroke-width: 0.8; stroke-linejoin: miter"/>
   </g>
   <g id="patch_5">
    <path d="M 216.994726 230.144366 
C 231.744387 230.892387 246.444378 227.871464 259.70371 221.367454 
C 272.963041 214.863443 284.34987 205.088175 292.786713 192.966636 
L 221.4 143.28 
L 216.994726 230.144366 
z
" style="fill: #d62728; stroke: #ffffff; stroke-width: 0.8; stroke-linejoin: miter"/>
   </g>
   <g id="patch_6">
    <path d="M 292.786713 192.966636 
C 297.831717 185.718283 301.743464 177.743648 304.387211 169.317422 
C 307.030959 160.891195 308.375998 152.11125 308.376 143.280016 
L 221.4 143.28 
L 292.786713 192.966636 
z
" style="fill: #9467bd; stroke: #ffffff; stroke-width: 0.8; stroke-linejoin: miter"/>
   </g>
   <g id="text_2">
    <text style="fill: #262626; font: 8.8px 'sans-serif'; text-anchor: start" x="287.315947" y="76.213466" transform="rotate(-0, 287.315947, 76.213466)">Stress signaling</text>
   </g>
   <g id="text_3">
    <text style="fill: #262626; font: 9.6px 'sans-serif'; text-anchor: middle" x="257.354153" y="107.938004" transform="rotate(-0, 257.354153, 107.938004)">25.8%</text>
   </g>
   <g id="text_4">
    <text style="fill: #262626; font: 8.8px 'sans-serif'; text-anchor: end" x="148.806883" y="83.235782" transform="rotate(-0, 148.806883, 83.235782)">Transport</text>
   </g>
   <g id="text_5">
    <text style="fill: #262626; font: 9.6px 'sans-serif'; text-anchor: middle" x="181.803755" y="111.769483" transform="rotate(-0, 181.803755, 111.769483)">25.8%</text>
   </g>
   <g id="text_6">
    <text style="fill: #262626; font: 8.8px 'sans-serif'; text-anchor: end" x="155.484046" y="214.898465" transform="rotate(-0, 155.484046, 214.898465)">Tc/Tl machineries</text>
   </g>
   <g id="text_7">
    <text style="fill: #262626; font: 9.6px 'sans-serif'; text-anchor: middle" x="185.445843" y="183.585492" transform="rotate(-0, 185.445843, 183.585492)">22.6%</text>
   </g>
   <g id="text_8">
    <text style="fill: #262626; font: 8.8px 'sans-serif'; text-anchor: start" x="263.534081" y="231.451136" transform="rotate(-0, 263.534081, 231.451136)">Metabolism</text>
   </g>
   <g id="text_9">
    <text style="fill: #262626; font: 9.6px 'sans-serif'; text-anchor: middle" x="244.382226" y="192.614222" transform="rotate(-0, 244.382226, 192.614222)">16.1%</text>
   </g>
   <g id="text_10">
    <text style="fill: #262626; font: 8.8px 'sans-serif'; text-anchor: start" x="312.685932" y="174.196101" transform="rotate(-0, 312.685932, 174.196101)">Membrane components</text>
   </g>
   <g id="text_11">
    <text style="fill: #262626; font: 9.6px 'sans-serif'; text-anchor: middle" x="271.192327" y="161.384203" transform="rotate(-0, 271.192327, 161.384203)">9.7%</text>
   </g>
  </g>
 </g>
</svg>
